<?xml version="1.0" standalone="no"?>
<!DOCTYPE svg PUBLIC "-//W3C//DTD SVG 20010904//EN"
 "http://www.w3.org/TR/2001/REC-SVG-20010904/DTD/svg10.dtd">
<svg version="1.0" xmlns="http://www.w3.org/2000/svg"
 width="3264.000000pt" height="3264.000000pt" viewBox="0 0 3264.000000 3264.000000"
 preserveAspectRatio="xMidYMid meet">

<g transform="translate(0.000000,3264.000000) scale(0.100000,-0.100000)"
fill="#000000" stroke="none">
<path d="M10854 31126 c0 -206 -2 -377 -5 -380 -3 -4 -36 5 -73 19 -36 14 -97
28 -134 31 -58 6 -74 3 -110 -15 -106 -54 -209 -262 -263 -531 -30 -146 -30
-361 0 -475 48 -179 156 -265 336 -265 84 0 137 34 207 135 52 74 53 76 59 48
4 -15 7 -59 8 -98 2 -117 -4 -111 124 -122 62 -5 115 -7 119 -4 18 15 40 663
45 1312 l6 686 -54 6 c-30 4 -92 9 -139 12 -47 3 -95 8 -106 10 l-21 5 1 -374z
m-39 -619 l40 -23 3 -135 3 -135 -42 -120 c-46 -134 -98 -240 -135 -275 -34
-32 -72 -18 -99 36 -17 34 -20 59 -19 170 2 195 50 404 111 475 31 37 80 40
138 7z"/>
<path d="M12535 31478 c-8 -25 -26 -450 -35 -848 -11 -426 -3 -1137 12 -1146
7 -4 256 -32 302 -34 4 0 5 116 1 260 -4 143 -4 260 0 260 8 0 116 -114 213
-227 62 -72 112 -136 210 -272 l25 -33 98 98 c55 54 99 102 99 105 0 17 -152
235 -237 341 l-93 116 85 128 c76 113 235 406 235 432 0 11 -209 197 -214 191
-2 -2 -27 -51 -56 -109 -29 -57 -80 -149 -114 -203 -71 -114 -230 -330 -247
-336 -13 -4 -8 358 12 829 6 140 12 296 13 345 l1 90 -85 7 c-47 3 -115 9
-153 12 -50 5 -69 3 -72 -6z"/>
<path d="M4220 31232 c-89 -174 -368 -674 -406 -725 -15 -21 -16 -2 -9 298 3
176 10 362 13 413 l7 92 -30 5 c-49 8 -338 35 -341 32 -1 -1 -8 -114 -15 -251
-17 -362 -9 -1551 12 -1570 12 -12 355 -53 364 -44 2 2 -1 80 -5 173 -5 94 -9
271 -9 395 0 203 1 223 14 200 178 -301 254 -417 372 -567 98 -125 207 -238
221 -229 7 4 64 66 128 138 l115 131 -99 101 c-120 123 -223 252 -329 411 -44
66 -83 126 -87 133 -5 7 35 80 101 185 109 174 319 535 383 659 23 44 31 70
25 76 -8 8 -318 132 -327 132 -2 0 -46 -85 -98 -188z"/>
<path d="M7670 31279 c0 -2 -7 -69 -15 -149 -8 -80 -11 -148 -7 -151 6 -6 249
-39 284 -39 20 0 47 288 29 300 -7 3 -69 12 -139 19 -69 8 -132 16 -139 18 -7
3 -13 4 -13 2z"/>
<path d="M9735 31266 c-5 -18 -27 -288 -23 -290 9 -7 291 -37 296 -31 8 8 33
287 26 294 -11 12 -296 37 -299 27z"/>
<path d="M19980 31279 c0 -2 -7 -69 -15 -149 -8 -80 -11 -148 -7 -151 6 -6
249 -39 284 -39 20 0 47 288 29 300 -7 3 -69 12 -139 19 -69 8 -132 16 -139
18 -7 3 -13 4 -13 2z"/>
<path d="M9037 31133 c-4 -32 -10 -163 -13 -291 -4 -128 -11 -235 -15 -238 -5
-3 -48 -12 -96 -20 -48 -9 -90 -17 -94 -19 -6 -5 26 -198 35 -214 3 -4 38 -6
79 -3 l73 4 -4 -429 -5 -430 134 -12 c74 -7 145 -13 159 -14 l25 -2 6 425 c3
234 7 440 8 458 l1 32 100 0 101 0 -3 128 -3 127 -94 3 -94 3 7 172 c4 95 9
211 13 258 l6 86 -129 12 c-71 7 -143 15 -160 17 l-31 6 -6 -59z"/>
<path d="M5115 30797 c-133 -44 -254 -195 -314 -391 -32 -104 -33 -102 52
-110 39 -4 95 -9 123 -12 l51 -6 7 34 c3 18 19 60 35 93 45 95 95 129 150 101
39 -21 60 -80 63 -185 l3 -85 -35 -7 c-142 -28 -200 -45 -261 -76 -96 -48
-171 -119 -211 -201 -30 -61 -33 -74 -32 -157 1 -112 25 -175 93 -238 91 -85
238 -106 376 -53 95 37 97 37 108 -6 8 -36 9 -36 70 -43 34 -3 85 -8 113 -11
l51 -6 6 69 c32 343 33 889 3 998 -57 203 -158 295 -330 302 -48 2 -97 -2
-121 -10z m161 -904 c-3 -42 -6 -93 -6 -113 0 -37 0 -37 -61 -55 -80 -22 -140
-14 -169 22 -37 48 -20 113 43 163 35 28 123 59 166 60 l34 0 -7 -77z"/>
<path d="M6922 30801 c-52 -13 -140 -79 -184 -138 -22 -29 -42 -53 -44 -53 -2
0 -27 17 -55 39 -28 21 -68 43 -89 50 -61 18 -158 14 -206 -9 -40 -20 -125
-102 -170 -165 l-22 -30 -7 40 c-3 22 -14 81 -23 130 l-17 90 -109 8 c-59 5
-110 6 -113 4 -2 -3 -9 -119 -14 -259 -13 -354 10 -1015 35 -1024 15 -5 300
-32 304 -29 2 2 -1 80 -7 174 -16 257 -14 355 10 447 38 148 133 342 175 358
73 28 92 -113 75 -553 -9 -222 -9 -316 -2 -320 18 -11 293 -33 301 -24 5 4 13
155 19 334 9 268 14 339 31 404 25 96 74 206 107 237 22 21 26 21 50 8 14 -8
33 -33 42 -55 24 -60 20 -463 -8 -749 -11 -121 -19 -222 -16 -225 10 -9 299
-31 306 -24 4 5 14 80 23 168 55 552 44 830 -37 992 -31 60 -102 127 -162 153
-52 22 -146 32 -193 21z"/>
<path d="M11728 30787 c-139 -59 -242 -197 -298 -400 -11 -39 -20 -74 -20 -78
0 -4 33 -9 73 -13 39 -4 95 -9 122 -12 l51 -6 22 71 c41 125 108 188 169 159
43 -20 64 -74 70 -182 l6 -94 -54 -7 c-325 -41 -527 -242 -488 -486 28 -172
142 -264 324 -263 63 1 94 7 145 28 99 42 95 42 106 0 10 -43 19 -47 156 -58
l77 -7 5 33 c11 68 27 481 28 698 1 253 -9 324 -63 440 -59 128 -152 191 -294
197 -67 3 -89 0 -137 -20z m180 -929 l-3 -113 -40 -14 c-22 -8 -68 -15 -102
-15 -73 -1 -100 18 -109 75 -6 38 21 87 67 122 33 24 125 56 162 57 l28 0 -3
-112z"/>
<path d="M15295 30794 c-40 -13 -67 -33 -133 -100 l-83 -84 -41 34 c-22 19
-61 42 -86 50 -57 20 -162 21 -207 2 -36 -15 -132 -106 -176 -165 l-25 -34
-21 123 c-12 67 -25 126 -30 130 -4 4 -56 11 -114 14 l-106 7 -6 -98 c-17
-252 0 -1161 22 -1185 6 -7 303 -38 309 -33 2 2 -2 108 -8 236 -7 127 -10 259
-6 292 13 125 113 372 175 432 88 83 114 -87 92 -584 -9 -188 -9 -266 -2 -271
12 -7 300 -34 306 -28 2 2 8 138 14 303 13 359 16 387 48 490 41 131 86 205
124 205 27 0 57 -46 70 -108 16 -77 5 -466 -20 -727 -10 -110 -17 -202 -15
-204 4 -5 306 -33 310 -29 4 5 33 308 45 473 14 196 6 476 -15 563 -35 141
-102 233 -200 277 -69 32 -157 39 -221 19z"/>
<path d="M21643 30800 c-53 -12 -119 -57 -172 -117 -28 -31 -51 -61 -51 -65 0
-17 -27 -7 -51 18 -13 14 -42 35 -64 47 -49 25 -167 35 -218 18 -49 -17 -117
-74 -172 -145 -27 -35 -47 -53 -49 -45 -3 8 -12 61 -21 119 -9 58 -22 110 -28
116 -7 7 -58 15 -114 19 l-102 7 -8 -29 c-13 -48 -9 -934 5 -1103 7 -85 14
-155 15 -156 7 -6 303 -30 309 -25 3 3 2 60 -2 127 -5 66 -10 190 -11 275 -2
141 0 161 25 244 34 114 117 287 151 313 32 25 50 20 73 -22 14 -26 17 -67 20
-251 2 -121 -1 -301 -6 -400 -6 -99 -8 -182 -6 -184 4 -4 241 -30 286 -30 26
-1 26 1 32 72 4 39 11 194 15 342 8 248 11 277 36 360 30 103 79 201 108 217
54 28 91 -41 103 -192 7 -94 -7 -380 -32 -653 -9 -98 -14 -181 -10 -184 8 -9
297 -35 304 -28 9 9 40 349 51 552 22 429 -26 631 -173 732 -70 49 -168 69
-243 51z"/>
<path d="M22617 30786 c-31 -13 -77 -40 -102 -60 -51 -42 -123 -146 -158 -231
-21 -49 -57 -169 -57 -188 0 -2 33 -7 73 -11 39 -4 95 -9 123 -12 l51 -6 22
67 c42 129 107 192 168 163 43 -20 65 -77 71 -183 l5 -92 -74 -11 c-215 -32
-373 -132 -442 -279 -28 -60 -29 -70 -25 -161 3 -80 9 -106 30 -147 81 -155
276 -205 468 -119 33 15 62 25 64 23 1 -2 7 -20 12 -39 11 -39 22 -43 156 -54
75 -7 78 -6 82 16 10 47 28 490 29 708 1 313 -27 431 -128 539 -61 65 -127 93
-230 98 -68 3 -89 0 -138 -21z m183 -926 c0 -124 3 -119 -92 -140 -45 -10 -67
-11 -97 -2 -46 14 -60 29 -67 74 -6 37 21 87 67 121 33 24 124 56 162 57 l27
0 0 -110z"/>
<path d="M25490 30801 c-90 -29 -164 -90 -228 -185 -47 -71 -102 -202 -116
-277 l-6 -36 72 -7 c40 -4 96 -9 123 -12 l51 -6 22 71 c41 125 108 188 169
159 42 -20 62 -72 70 -181 l6 -95 -54 -7 c-223 -28 -391 -131 -461 -282 -27
-56 -32 -79 -32 -142 1 -108 25 -173 88 -237 66 -65 130 -89 241 -88 63 1 94
7 145 28 102 43 97 43 105 -2 l6 -40 62 -7 c34 -3 85 -8 114 -11 l51 -6 6 43
c19 152 35 741 25 874 -19 230 -92 367 -228 428 -50 22 -186 33 -231 18z m150
-933 c0 -57 -4 -109 -9 -116 -13 -21 -119 -44 -168 -37 -49 7 -83 42 -83 85 0
32 34 85 71 113 33 24 124 56 162 57 l27 0 0 -102z"/>
<path d="M7650 30145 l0 -655 23 -1 c12 0 78 -6 147 -13 69 -7 128 -11 133 -9
4 2 7 296 7 654 0 512 -3 649 -12 649 -7 0 -74 7 -148 15 -74 8 -138 15 -142
15 -5 0 -8 -295 -8 -655z"/>
<path d="M9717 30794 c-9 -10 -9 -1292 1 -1297 4 -3 61 -10 127 -16 66 -7 132
-14 148 -16 l27 -4 0 653 0 654 -42 5 c-24 4 -74 9 -113 12 -38 3 -86 8 -105
11 -20 3 -39 2 -43 -2z"/>
<path d="M16309 30787 c-142 -40 -257 -171 -325 -370 -59 -171 -80 -437 -48
-595 52 -258 243 -413 459 -373 82 15 171 61 231 119 51 48 144 177 144 198 0
9 -180 124 -194 124 -2 0 -27 -31 -55 -70 -55 -74 -91 -105 -134 -115 -49 -13
-74 1 -101 58 -30 61 -49 167 -32 172 6 2 92 17 191 35 99 17 219 40 268 51
l87 21 0 102 c0 326 -84 541 -245 623 -60 31 -174 40 -246 20z m134 -275 c23
-26 44 -114 52 -224 l7 -96 -88 -20 c-169 -39 -164 -39 -164 -4 0 104 57 280
106 330 36 36 63 41 87 14z"/>
<path d="M17487 30786 c-89 -33 -169 -115 -238 -245 -15 -29 -29 -49 -32 -44
-2 4 -13 42 -22 84 l-18 77 -96 10 c-52 6 -97 9 -100 6 -13 -13 -22 -331 -17
-599 5 -250 21 -584 29 -591 7 -6 303 -30 309 -25 3 3 1 95 -5 204 -8 150 -8
222 1 292 23 179 112 475 159 527 44 48 84 -6 104 -142 12 -88 6 -541 -10
-700 -4 -41 -6 -77 -4 -79 5 -7 304 -33 310 -28 13 14 34 361 35 587 1 211 -2
258 -19 340 -24 111 -58 184 -114 245 -67 73 -193 110 -272 81z"/>
<path d="M18447 30790 c-191 -49 -331 -258 -382 -573 -19 -117 -19 -311 0
-402 32 -152 123 -281 237 -335 80 -38 145 -45 234 -27 95 20 146 48 221 120
59 56 143 171 143 194 0 10 -185 124 -199 122 -3 0 -28 -32 -56 -72 -76 -109
-159 -146 -209 -92 -26 28 -53 109 -58 169 l-3 39 180 32 c99 18 224 42 278
54 l97 23 0 97 c0 181 -33 358 -86 462 -35 69 -98 136 -158 166 -56 28 -173
39 -239 23z m140 -310 c25 -50 51 -266 35 -282 -9 -9 -203 -57 -229 -58 -29 0
0 184 43 280 54 118 111 141 151 60z"/>
<path d="M19519 30772 c-47 -30 -106 -103 -155 -189 -16 -29 -32 -53 -35 -53
-3 0 -14 28 -25 63 l-19 62 -97 10 c-86 9 -98 9 -98 -5 0 -8 7 -69 16 -135 11
-87 17 -248 21 -591 l5 -471 150 -12 c82 -7 153 -10 156 -6 4 4 8 181 10 393
3 415 7 452 58 554 36 71 67 91 134 85 30 -2 62 -7 71 -11 13 -6 21 13 47 103
18 60 32 118 32 129 0 24 -56 68 -111 87 -63 23 -109 19 -160 -13z"/>
<path d="M19960 30145 l0 -655 23 -1 c12 0 78 -6 147 -13 69 -7 128 -11 133
-9 4 2 7 296 7 654 0 512 -3 649 -12 649 -7 0 -74 7 -148 15 -74 8 -138 15
-142 15 -5 0 -8 -295 -8 -655z"/>
<path d="M24586 30784 c-3 -9 -6 -155 -6 -324 0 -306 0 -310 -26 -392 -82
-260 -188 -358 -239 -223 -16 41 -17 69 -12 248 4 111 14 276 22 367 9 91 17
181 18 200 l2 35 -152 14 c-84 8 -155 13 -157 10 -7 -8 -36 -326 -47 -529 -15
-258 -8 -405 20 -482 51 -135 156 -211 294 -212 62 0 79 4 120 28 52 30 117
90 159 146 14 19 28 33 31 30 3 -3 12 -52 21 -109 8 -57 17 -105 18 -107 5 -5
258 -28 261 -23 2 2 0 60 -4 129 -4 69 -8 364 -8 656 l-1 531 -127 12 c-165
15 -180 14 -187 -5z"/>
<path d="M26707 30786 c-76 -27 -152 -106 -225 -233 -20 -34 -37 -61 -39 -60
-1 2 -11 39 -21 83 l-19 79 -98 12 c-54 7 -101 10 -104 7 -3 -3 -7 -164 -10
-357 -3 -331 13 -814 27 -829 8 -7 305 -38 311 -32 2 2 -1 97 -8 212 -6 115
-9 222 -7 238 22 133 31 181 52 266 30 121 68 230 101 286 32 57 59 55 90 -8
45 -91 53 -375 22 -753 -6 -71 -8 -132 -4 -135 6 -6 221 -30 281 -31 l31 -1
14 163 c8 89 14 284 14 432 0 306 -9 368 -70 492 -44 90 -97 137 -183 163 -74
23 -103 24 -155 6z"/>
<path d="M27650 30765 c-200 -117 -370 -503 -370 -840 0 -129 12 -194 50 -272
72 -146 239 -213 375 -150 55 26 139 111 181 183 15 25 29 43 31 40 11 -11
-19 -283 -42 -372 -39 -153 -84 -214 -158 -214 -71 0 -148 57 -206 155 -14 22
-26 42 -27 44 -5 6 -224 -91 -224 -100 0 -14 65 -117 113 -179 103 -132 264
-220 402 -220 60 0 142 38 194 90 162 162 241 521 241 1100 0 199 12 442 26
551 l6 45 -92 12 c-81 11 -98 17 -134 47 -71 58 -168 98 -250 102 -63 4 -76 1
-116 -22z m234 -290 l46 -36 0 -102 c0 -194 -88 -447 -194 -562 -53 -56 -80
-57 -110 -5 -31 52 -29 276 3 410 49 202 119 330 180 330 17 0 47 -14 75 -35z"/>
<path d="M18939 27879 c3 -368 2 -382 -15 -376 -11 3 -44 14 -74 25 -75 28
-168 37 -213 23 -45 -15 -122 -98 -164 -178 -38 -70 -95 -236 -118 -343 -22
-100 -31 -335 -16 -427 24 -152 88 -256 188 -303 50 -23 160 -37 216 -26 46 9
121 76 167 150 19 31 38 56 41 56 3 0 9 -52 12 -116 4 -64 8 -118 9 -120 2 -1
56 -6 120 -9 l116 -8 6 44 c21 170 50 1340 41 1691 l-7 267 -37 5 c-20 3 -72
8 -116 11 -44 3 -98 8 -120 11 l-40 6 4 -383z m-26 -618 l34 -21 -5 -142 c-4
-123 -9 -156 -34 -233 -58 -176 -133 -305 -178 -305 -23 0 -59 40 -70 81 -15
50 -12 231 5 334 24 149 61 251 107 297 26 26 90 21 141 -11z"/>
<path d="M15167 28153 c-23 -352 -31 -664 -32 -1245 0 -361 3 -659 6 -662 5
-5 261 -35 304 -36 7 0 10 237 10 693 0 620 8 940 31 1243 l6 81 -108 7 c-60
3 -132 9 -160 12 l-51 6 -6 -99z"/>
<path d="M26526 28239 c-8 -23 -26 -461 -37 -869 -10 -401 -2 -1117 13 -1126
11 -7 297 -36 306 -30 4 2 3 91 -1 198 -5 106 -6 409 -3 673 6 434 10 585 32
1011 l7 131 -114 7 c-63 4 -133 9 -156 13 -31 4 -44 2 -47 -8z"/>
<path d="M22670 28203 c0 -10 5 -202 10 -428 10 -415 0 -1081 -20 -1375 -5
-79 -8 -146 -6 -148 4 -3 267 -31 302 -32 13 0 19 81 34 425 9 212 11 224 43
320 44 129 90 220 123 242 24 15 29 15 53 2 52 -29 54 -54 42 -503 -6 -225 -9
-411 -7 -413 8 -9 300 -33 306 -26 11 12 30 450 30 687 0 158 -4 223 -16 270
-49 190 -156 296 -299 296 -77 0 -130 -24 -199 -90 l-54 -51 -6 208 c-20 659
-16 603 -40 608 -25 5 -242 25 -274 25 -14 0 -22 -6 -22 -17z"/>
<path d="M21430 28038 c-14 -117 -27 -294 -24 -298 8 -7 286 -40 294 -35 9 6
34 284 26 292 -3 4 -54 12 -114 19 -59 7 -124 15 -144 19 -21 3 -38 4 -38 3z"/>
<path d="M25864 27963 c-4 -43 -8 -112 -8 -153 l-1 -74 144 -18 c79 -10 145
-17 147 -16 1 2 9 70 16 150 l14 147 -26 5 c-14 3 -68 10 -120 16 -52 6 -109
13 -127 16 l-31 5 -8 -78z"/>
<path d="M5987 27943 c-2 -4 -7 -87 -11 -183 -3 -96 -9 -225 -12 -286 l-6
-111 -99 -18 c-58 -10 -99 -22 -99 -29 0 -6 7 -47 15 -91 26 -138 14 -124 100
-118 l75 6 0 -430 0 -430 128 -12 c70 -6 142 -11 159 -11 l33 0 2 453 3 452
100 5 100 5 0 125 0 125 -97 3 -97 3 5 112 c3 62 9 177 14 257 4 80 7 146 6
147 0 0 -53 6 -116 12 -63 6 -134 14 -157 17 -23 3 -43 1 -46 -3z"/>
<path d="M8857 27612 c-3 -4 -11 -95 -18 -202 -20 -282 -20 -1767 0 -1779 14
-9 298 -37 305 -30 2 2 0 108 -4 234 -12 304 -12 417 -1 411 25 -16 161 -26
206 -16 168 38 331 316 381 651 56 380 -75 643 -321 643 -88 0 -144 -24 -216
-93 -29 -28 -55 -51 -57 -51 -2 0 -1 47 3 105 6 86 4 105 -7 105 -12 0 -71 6
-225 25 -23 2 -44 1 -46 -3z m520 -402 c77 -155 46 -472 -63 -635 -41 -63 -84
-88 -126 -73 -55 19 -58 32 -58 266 0 213 0 213 30 291 53 137 110 204 170
198 19 -1 31 -13 47 -47z"/>
<path d="M12896 27603 c-2 -10 -11 -106 -18 -213 -19 -277 -19 -1747 0 -1759
15 -9 300 -37 307 -30 2 3 0 144 -6 313 -5 170 -8 315 -5 322 4 11 11 11 33 3
50 -19 183 -16 228 6 181 86 345 469 345 804 0 271 -120 459 -305 478 -88 9
-205 -41 -268 -117 -14 -16 -28 -30 -31 -30 -3 0 -3 47 1 105 5 86 4 105 -8
105 -8 0 -70 7 -139 15 -69 8 -126 15 -127 15 -1 0 -4 -8 -7 -17z m506 -360
c30 -33 50 -117 56 -221 13 -282 -110 -562 -230 -520 -55 19 -58 33 -58 266
l0 214 30 74 c66 164 152 244 202 187z"/>
<path d="M5118 27557 c-144 -54 -246 -179 -312 -381 -38 -115 -39 -112 52
-120 42 -4 98 -9 123 -12 46 -6 46 -6 53 27 8 46 52 139 79 168 33 35 63 43
101 27 44 -18 64 -74 68 -186 l3 -85 -35 -7 c-218 -43 -303 -79 -391 -167 -98
-98 -134 -208 -110 -333 15 -74 47 -133 96 -177 45 -39 91 -58 171 -71 74 -12
174 4 243 40 23 11 46 18 50 15 5 -2 12 -20 15 -39 7 -34 7 -34 74 -40 37 -4
88 -9 113 -11 l46 -5 6 62 c31 320 33 894 3 1003 -38 140 -108 235 -205 278
-58 26 -190 33 -243 14z m157 -934 c-4 -60 -10 -112 -15 -116 -4 -4 -31 -15
-61 -23 -107 -28 -179 5 -179 84 0 71 126 158 233 161 l29 1 -7 -107z"/>
<path d="M6938 27557 c-144 -54 -246 -179 -312 -381 -38 -115 -39 -112 52
-120 42 -4 97 -9 122 -12 l45 -6 17 59 c21 72 73 153 110 171 22 10 33 10 61
-2 45 -18 65 -73 69 -186 l3 -85 -35 -7 c-218 -43 -303 -79 -391 -167 -97 -98
-134 -212 -109 -336 32 -161 150 -249 330 -248 59 0 90 6 140 27 89 37 92 37
103 -6 l9 -37 66 -6 c37 -3 88 -8 113 -10 l46 -5 7 67 c31 343 32 890 2 998
-57 202 -158 295 -330 302 -52 2 -94 -2 -118 -10z m157 -934 c-4 -73 -11 -112
-20 -119 -8 -6 -39 -16 -69 -23 -100 -22 -166 13 -166 88 0 70 127 157 234
160 l28 1 -7 -107z"/>
<path d="M17025 27557 c-130 -43 -242 -177 -305 -364 -44 -132 -45 -129 48
-137 42 -4 98 -9 123 -12 46 -6 46 -6 53 27 8 46 52 139 79 168 31 33 61 42
97 30 47 -17 63 -58 68 -176 l4 -102 -38 -6 c-240 -36 -394 -126 -466 -273
-30 -61 -33 -75 -33 -157 1 -111 26 -175 92 -236 53 -49 89 -65 175 -79 77
-12 154 0 236 36 30 13 56 24 58 24 2 0 8 -18 14 -39 12 -44 -3 -39 176 -56
l61 -6 6 78 c31 391 33 864 3 981 -35 140 -109 242 -203 284 -58 26 -191 34
-248 15z m158 -934 c-3 -60 -9 -112 -13 -116 -15 -17 -116 -37 -158 -31 -100
15 -111 122 -19 195 32 24 127 58 169 58 l27 1 -6 -107z"/>
<path d="M19833 27556 c-61 -20 -105 -50 -165 -114 -62 -67 -106 -146 -142
-254 -43 -128 -46 -123 90 -137 64 -6 119 -9 122 -7 2 3 14 34 26 69 49 147
134 203 198 131 24 -28 38 -90 38 -175 0 -83 -4 -89 -70 -89 -96 0 -267 -77
-350 -156 -80 -76 -112 -143 -118 -245 -12 -209 110 -338 323 -342 69 -1 197
32 210 54 13 20 34 7 42 -28 10 -44 25 -49 157 -54 l81 -4 6 80 c4 44 13 229
20 410 14 361 8 482 -30 606 -41 130 -129 227 -233 255 -65 17 -149 17 -205 0z
m155 -938 l-3 -111 -40 -15 c-22 -8 -66 -15 -97 -15 -47 -2 -61 2 -82 22 -33
31 -35 90 -6 131 35 50 134 98 203 99 l28 1 -3 -112z"/>
<path d="M24114 27552 c-131 -46 -241 -183 -302 -372 -12 -36 -22 -76 -24 -90
-3 -27 -3 -27 169 -44 l72 -7 7 28 c11 47 60 147 84 171 51 53 107 47 144 -17
14 -25 20 -58 24 -131 l5 -98 -29 -5 c-16 -3 -51 -9 -78 -12 -68 -9 -181 -51
-241 -90 -73 -47 -150 -135 -175 -203 -47 -123 -10 -299 78 -372 93 -77 253
-96 372 -46 100 42 96 43 107 0 10 -45 25 -50 157 -55 l81 -4 7 100 c16 251
30 679 24 771 -17 254 -92 405 -229 465 -72 31 -184 36 -253 11z m166 -932 l0
-110 -27 -11 c-62 -23 -121 -30 -163 -19 -34 9 -44 18 -57 47 -19 47 -3 94 49
136 40 32 126 66 171 67 l27 0 0 -110z"/>
<path d="M8230 27242 c0 -259 -3 -329 -16 -373 -43 -150 -105 -275 -156 -312
-23 -17 -31 -19 -53 -9 -52 24 -58 62 -51 322 3 129 14 313 24 409 12 117 14
174 7 177 -26 9 -297 29 -301 22 -2 -4 -11 -74 -19 -155 -35 -357 -45 -695
-24 -795 37 -174 154 -274 321 -272 52 1 76 7 110 27 49 29 110 84 153 141 15
20 32 33 36 29 4 -4 13 -48 20 -98 6 -49 13 -95 14 -101 3 -12 49 -19 184 -30
l84 -7 -8 164 c-4 90 -8 387 -9 659 l-1 495 -110 12 c-60 6 -131 12 -157 12
l-48 1 0 -318z"/>
<path d="M10486 27538 c-3 -13 -6 -159 -6 -325 0 -297 0 -303 -26 -385 -28
-90 -83 -211 -112 -244 -43 -51 -87 -53 -118 -6 -33 50 -29 366 11 737 7 72
10 133 7 137 -9 8 -302 35 -307 28 -7 -11 -35 -333 -46 -530 -25 -444 10 -575
174 -659 58 -30 76 -34 141 -34 62 0 81 4 120 27 51 30 116 90 158 146 14 19
28 33 31 30 3 -3 12 -52 21 -109 8 -57 17 -105 19 -107 6 -6 256 -28 260 -23
2 2 0 63 -4 134 -4 72 -8 367 -8 656 l-1 526 -132 11 c-177 16 -175 16 -182
-10z"/>
<path d="M11572 27550 c-88 -21 -152 -89 -270 -290 -7 -11 -15 10 -28 70 l-20
85 -99 12 c-54 7 -101 10 -104 7 -3 -3 -6 -198 -6 -432 0 -412 10 -728 23
-749 4 -6 59 -16 122 -22 63 -6 132 -14 154 -16 l38 -6 -8 183 c-5 101 -8 214
-6 253 8 198 127 592 184 611 30 9 55 -22 75 -96 15 -54 18 -105 17 -315 0
-137 -6 -310 -13 -384 -6 -73 -10 -135 -8 -138 6 -5 308 -36 312 -31 1 2 8 62
15 133 18 198 25 615 11 715 -32 241 -114 365 -267 405 -63 16 -73 17 -122 5z"/>
<path d="M14527 27470 c-4 -51 -7 -200 -7 -331 0 -235 0 -238 -29 -327 -38
-114 -81 -201 -121 -241 -35 -35 -39 -36 -73 -20 -35 16 -49 53 -55 140 -5 88
12 410 33 613 8 76 15 141 15 146 0 4 -62 12 -137 19 -76 7 -147 13 -158 14
-19 2 -21 -9 -36 -158 -28 -267 -44 -671 -30 -761 21 -142 74 -224 177 -275
83 -41 184 -46 249 -12 53 28 124 91 159 142 16 23 32 41 36 41 8 0 24 -78 35
-166 l7 -51 99 -12 c55 -6 116 -11 135 -11 36 0 36 1 30 33 -4 17 -9 314 -13
658 l-6 626 -71 7 c-39 3 -107 9 -152 12 l-81 7 -6 -93z"/>
<path d="M20966 27529 c-47 -32 -115 -118 -155 -196 -12 -24 -25 -43 -29 -43
-5 0 -17 28 -28 63 l-19 62 -97 10 c-86 9 -98 9 -98 -5 0 -8 8 -69 16 -135 12
-88 17 -243 21 -585 2 -256 7 -468 11 -471 10 -8 294 -31 301 -24 3 4 8 189
12 413 6 426 8 440 55 534 36 71 67 91 134 85 30 -2 62 -7 71 -11 13 -6 21 13
47 103 18 60 32 118 32 129 0 24 -56 68 -111 87 -66 24 -109 19 -163 -16z"/>
<path d="M21410 26907 l0 -654 123 -11 c67 -7 137 -12 155 -12 l32 0 0 650 c0
375 -4 650 -9 650 -16 0 -214 20 -258 26 l-43 5 0 -654z"/>
<path d="M25850 26907 l0 -654 128 -12 c70 -6 139 -11 155 -11 l27 0 0 650 c0
443 -3 650 -10 650 -11 0 -172 16 -252 25 l-48 6 0 -654z"/>
<path d="M16080 27537 c-131 -39 -242 -132 -301 -253 -32 -66 -34 -74 -34
-179 0 -105 2 -114 33 -177 35 -73 110 -149 190 -195 92 -52 140 -93 161 -136
27 -56 26 -71 -6 -107 -67 -74 -180 -25 -288 123 l-20 28 -72 -83 -71 -82 28
-41 c34 -49 113 -124 166 -157 140 -88 322 -94 458 -14 60 35 121 107 146 172
24 66 26 162 5 225 -29 84 -128 181 -267 262 -25 15 -61 39 -79 54 -90 76 -92
248 -3 290 79 38 117 -13 120 -157 l1 -95 59 -6 c32 -4 87 -7 121 -8 l62 -1 7
35 c13 70 -1 246 -25 307 -29 76 -97 149 -162 177 -63 28 -168 36 -229 18z"/>
<path d="M25180 27536 c-251 -73 -393 -322 -320 -559 34 -110 85 -162 280
-290 104 -67 137 -152 79 -206 -64 -60 -186 -8 -267 114 l-30 45 -71 -77 c-39
-42 -71 -82 -71 -89 0 -29 96 -133 170 -183 71 -48 130 -71 205 -81 166 -21
332 59 403 195 24 44 27 61 27 150 0 93 -2 104 -29 150 -37 62 -106 129 -180
175 -109 67 -175 120 -192 151 -25 49 -30 139 -10 181 21 43 72 74 109 64 44
-11 61 -57 63 -166 l2 -95 58 -6 c33 -4 87 -7 121 -8 59 -1 62 0 67 27 22 117
11 242 -28 328 -33 72 -96 137 -157 164 -63 26 -168 34 -229 16z"/>
<path d="M9986 24963 c-3 -26 -11 -165 -18 -308 -13 -270 -19 -1638 -6 -1650
5 -5 251 -34 298 -35 13 0 15 86 15 713 0 605 9 997 29 1286 1 17 -22 20 -220
35 l-92 7 -6 -48z"/>
<path d="M13777 24904 c-24 -388 -31 -684 -31 -1251 -1 -353 2 -644 6 -648 5
-5 250 -33 303 -35 7 0 10 232 10 678 0 604 8 905 31 1248 l7 91 -94 7 c-52 4
-124 9 -160 13 l-66 6 -6 -109z"/>
<path d="M9337 24793 c-10 -17 -29 -285 -21 -292 10 -9 285 -44 291 -37 8 8
32 291 25 297 -4 3 -59 11 -122 18 -63 7 -127 14 -142 17 -14 3 -28 2 -31 -3z"/>
<path d="M20686 24768 c-13 -80 -25 -263 -18 -269 12 -10 285 -40 292 -32 11
12 33 284 23 293 -4 4 -60 12 -123 19 -63 7 -127 14 -142 17 -24 5 -27 2 -32
-28z"/>
<path d="M19986 24598 c-3 -62 -9 -195 -12 -294 l-7 -181 -71 -12 c-128 -22
-126 -21 -126 -44 1 -12 9 -62 18 -112 15 -78 20 -90 37 -88 11 1 45 3 75 4
l55 3 0 -430 0 -429 55 -7 c30 -4 101 -10 158 -14 l102 -7 0 215 c0 118 3 323
7 456 l6 242 99 0 98 0 0 130 0 130 -95 0 -95 0 0 28 c0 15 5 130 11 255 7
125 10 229 8 231 -2 2 -56 9 -119 15 -63 6 -134 14 -156 17 l-41 5 -7 -113z"/>
<path d="M16996 24322 c-24 -222 -30 -480 -29 -1152 1 -399 6 -738 11 -755 8
-30 9 -30 113 -42 57 -6 125 -12 152 -12 l47 -1 -7 327 c-6 317 -6 326 13 319
10 -4 50 -11 89 -16 114 -14 170 6 251 92 93 98 162 238 211 427 34 129 43
371 19 475 -35 147 -126 261 -234 292 -104 31 -204 1 -297 -87 l-55 -52 0 107
c0 79 -3 106 -13 106 -11 0 -66 6 -223 24 l-41 5 -7 -57z m529 -354 c49 -108
53 -292 9 -460 -20 -80 -78 -191 -116 -223 -39 -33 -87 -33 -117 -1 -22 23
-22 27 -19 262 l3 239 42 86 c48 98 97 149 144 149 27 0 33 -6 54 -52z"/>
<path d="M12983 24319 c-67 -19 -156 -92 -209 -171 -55 -80 -111 -211 -120
-282 l-6 -43 116 -12 c65 -6 121 -9 125 -6 5 2 11 18 14 35 10 50 54 134 86
165 58 55 128 27 150 -60 6 -24 11 -77 11 -118 l0 -73 -75 -12 c-157 -24 -273
-81 -364 -177 -78 -83 -96 -129 -96 -250 1 -114 21 -170 83 -233 93 -93 266
-112 411 -46 29 13 57 24 62 24 4 0 13 -17 19 -39 l10 -39 68 -6 c37 -4 88 -9
113 -12 l46 -5 7 113 c27 458 32 731 15 855 -36 271 -159 405 -368 402 -36 0
-80 -5 -98 -10z m155 -941 l-3 -113 -40 -14 c-22 -8 -66 -14 -98 -14 -71 0
-107 27 -107 80 0 70 51 123 149 154 105 34 102 36 99 -93z"/>
<path d="M9315 24308 c-3 -7 -4 -301 -3 -653 l3 -640 55 -7 c30 -4 99 -10 153
-14 l97 -7 0 652 c0 376 -4 651 -9 651 -16 0 -215 20 -254 25 -25 4 -39 1 -42
-7z"/>
<path d="M10882 24305 c-71 -20 -106 -39 -160 -88 -134 -124 -217 -354 -229
-637 -9 -234 32 -383 138 -495 89 -94 203 -134 328 -114 93 14 157 47 233 118
62 57 148 173 148 199 0 11 -181 123 -197 121 -4 0 -30 -32 -58 -72 -76 -109
-159 -146 -209 -92 -24 26 -52 112 -58 175 l-3 34 180 33 c99 17 224 42 278
54 l97 22 0 106 c0 325 -92 550 -253 621 -62 28 -166 34 -235 15z m138 -287
c23 -39 37 -103 46 -219 l6 -87 -88 -20 c-49 -12 -106 -24 -126 -28 -37 -6
-38 -5 -38 24 0 104 57 280 106 330 41 41 69 41 94 0z"/>
<path d="M16280 24305 c-180 -51 -303 -223 -366 -515 -24 -112 -30 -357 -10
-449 54 -253 239 -405 453 -371 93 15 161 49 235 119 61 57 148 173 148 198 0
10 -181 123 -197 123 -4 0 -28 -30 -53 -67 -74 -110 -164 -152 -214 -98 -26
28 -53 109 -58 170 l-3 39 180 33 c99 17 224 42 278 54 l97 22 0 96 c0 328
-87 549 -245 626 -67 33 -168 41 -245 20z m142 -291 c21 -36 33 -98 43 -215
l7 -87 -89 -20 c-48 -12 -105 -24 -125 -28 l-38 -6 0 35 c0 102 57 276 106
325 41 41 71 39 96 -4z"/>
<path d="M18394 24310 c-216 -46 -365 -294 -402 -670 -36 -361 97 -624 340
-669 121 -22 253 20 354 112 52 47 154 184 154 205 0 9 -185 122 -199 122 -4
0 -14 -13 -24 -29 -9 -15 -38 -52 -64 -81 -69 -76 -141 -101 -177 -61 -23 26
-52 105 -60 166 l-7 50 188 33 c103 18 230 42 281 54 l92 21 0 78 c0 179 -39
389 -91 491 -31 61 -95 125 -154 153 -58 29 -162 40 -231 25z m115 -273 c24
-30 43 -108 49 -210 6 -92 5 -110 -8 -117 -15 -8 -200 -50 -220 -50 -27 0 3
185 47 282 39 87 101 131 132 95z"/>
<path d="M19462 24294 c-45 -27 -121 -120 -162 -198 -14 -25 -28 -46 -31 -46
-3 0 -14 27 -24 60 -10 34 -21 63 -25 65 -3 2 -49 7 -101 10 l-95 7 12 -83
c23 -158 36 -483 32 -803 -4 -312 -3 -317 17 -321 43 -9 288 -26 293 -20 3 3
7 182 9 398 4 420 6 445 59 548 35 70 67 92 129 86 27 -2 59 -7 71 -11 19 -7
23 2 54 113 l33 121 -24 26 c-33 37 -116 74 -164 74 -25 0 -56 -10 -83 -26z"/>
<path d="M20670 23666 l0 -653 151 -14 c82 -8 152 -13 155 -10 2 2 4 296 4
653 0 577 -2 648 -15 648 -15 0 -167 15 -252 25 l-43 5 0 -654z"/>
<path d="M21946 24117 c-4 -111 -8 -222 -9 -247 l-2 -45 135 -12 c74 -6 156
-12 181 -12 46 -1 47 -1 58 42 19 65 24 311 9 382 l-13 60 -120 12 c-66 6
-145 14 -176 17 l-56 5 -7 -202z"/>
<path d="M11863 24291 c-128 -59 -278 -303 -342 -556 -86 -346 -30 -615 146
-701 76 -37 186 -40 249 -7 49 26 113 90 160 161 19 28 38 52 41 52 11 0 -8
-212 -27 -312 -23 -117 -62 -209 -104 -244 -66 -56 -183 -6 -257 109 -22 33
-41 63 -44 65 -7 7 -225 -89 -225 -99 0 -4 27 -48 60 -97 114 -171 248 -269
397 -292 251 -39 405 184 473 680 6 41 15 246 20 454 8 308 21 560 33 630 1 6
-41 18 -94 26 -79 13 -103 22 -136 48 -115 91 -258 124 -350 83z m190 -272
c12 -6 34 -23 50 -37 26 -25 27 -28 27 -138 0 -140 -31 -269 -96 -401 -48 -98
-124 -193 -153 -193 -31 0 -61 44 -73 109 -22 120 25 407 90 545 53 113 96
145 155 115z"/>
<path d="M15340 24296 c-129 -38 -243 -133 -302 -253 -31 -64 -33 -74 -33
-178 0 -98 3 -116 26 -165 40 -83 91 -135 215 -216 114 -75 148 -112 160 -171
5 -24 0 -37 -23 -63 -26 -29 -36 -33 -75 -33 -25 1 -59 8 -75 16 -31 17 -113
100 -132 135 -6 12 -17 22 -24 21 -7 0 -42 -35 -79 -77 -77 -87 -78 -80 13
-176 94 -101 180 -148 302 -166 290 -43 525 231 408 475 -37 77 -108 145 -237
228 -128 82 -155 115 -161 200 -7 79 15 131 63 154 42 21 75 11 99 -29 16 -26
20 -52 20 -128 l1 -95 118 -10 c103 -9 119 -8 125 5 3 8 6 74 5 145 0 110 -3
139 -22 186 -29 74 -90 142 -155 173 -64 32 -171 41 -237 22z"/>
<path d="M21927 23263 c-3 -120 -9 -230 -12 -244 l-7 -26 183 -14 182 -14 13
32 c20 47 34 236 24 323 -12 109 -19 130 -44 135 -30 6 -257 25 -299 25 l-34
0 -6 -217z"/>
<path d="M13175 21695 c-85 -13 -231 -50 -254 -64 -10 -7 -15 -61 -22 -222
-13 -329 -21 -1356 -12 -1524 l8 -150 125 -12 c69 -6 151 -14 184 -17 l58 -6
-3 312 -4 312 100 37 c342 123 568 333 626 579 18 78 14 211 -10 303 -28 107
-74 189 -153 272 -157 167 -364 224 -643 180z m314 -338 c123 -81 169 -298 96
-452 -40 -85 -139 -180 -237 -228 -42 -20 -82 -37 -87 -37 -11 0 -9 209 5 587
7 174 -1 163 110 160 59 -2 78 -7 113 -30z"/>
<path d="M16246 21549 c-10 -32 -26 -283 -19 -289 11 -9 284 -42 292 -35 9 10
31 289 23 296 -4 3 -61 12 -127 18 -66 7 -130 15 -142 18 -14 3 -24 0 -27 -8z"/>
<path d="M10950 20968 c0 -101 -7 -248 -14 -328 -8 -80 -13 -147 -11 -149 5
-4 608 -62 611 -58 5 5 35 172 45 252 22 171 -5 415 -46 415 -8 0 -138 11
-291 25 -152 14 -281 25 -286 25 -4 0 -8 -82 -8 -182z"/>
<path d="M16876 21123 c-2 -10 -11 -108 -18 -218 -14 -214 -19 -1737 -6 -1750
10 -10 308 -43 313 -35 2 4 0 150 -6 325 -5 175 -8 319 -6 321 2 2 20 -1 41
-7 21 -6 73 -11 115 -12 67 -1 82 2 123 26 181 106 328 466 328 800 -1 241
-95 419 -246 463 -110 32 -214 3 -305 -85 -29 -28 -54 -51 -55 -51 -2 0 0 47
3 104 l6 104 -44 6 c-46 7 -219 26 -231 26 -4 0 -9 -8 -12 -17z m513 -369 c36
-45 54 -162 48 -298 -14 -297 -155 -518 -260 -408 l-27 28 0 215 0 214 34 83
c69 166 152 234 205 166z"/>
<path d="M18506 21005 c-3 -44 -6 -190 -6 -324 0 -263 -5 -296 -59 -430 -38
-93 -85 -165 -118 -180 -23 -10 -30 -9 -52 7 -47 35 -54 77 -47 292 6 171 23
395 42 556 l6 51 -154 14 c-84 8 -156 12 -159 9 -11 -8 -38 -335 -50 -593 -16
-338 0 -432 93 -533 51 -56 95 -79 175 -94 46 -8 73 -8 108 1 61 15 149 81
205 154 l45 58 11 -59 c7 -33 15 -84 18 -115 l7 -57 130 -12 c71 -7 131 -11
133 -9 2 2 0 78 -5 169 -4 91 -8 387 -8 658 l-1 492 -22 1 c-13 0 -82 6 -154
12 l-131 12 -7 -80z"/>
<path d="M19410 21081 c-78 -25 -154 -81 -203 -149 -61 -83 -123 -222 -140
-318 l-6 -31 121 -12 c125 -13 137 -10 138 27 0 26 58 138 85 165 27 27 40 31
80 28 51 -5 85 -91 85 -215 l0 -64 -56 -7 c-210 -26 -380 -129 -451 -272 -54
-111 -43 -265 27 -362 84 -115 278 -149 439 -75 29 13 57 24 61 24 5 0 12 -17
17 -37 8 -34 13 -38 48 -44 22 -4 74 -8 115 -10 l75 -4 7 105 c17 270 29 684
23 770 -18 250 -89 396 -223 461 -35 17 -68 24 -132 26 -47 1 -96 -1 -110 -6z
m150 -941 l0 -110 -27 -11 c-107 -41 -191 -32 -219 23 -21 40 -7 92 34 131 35
34 135 76 180 77 l32 0 0 -110z"/>
<path d="M14363 21065 c-189 -59 -320 -269 -368 -590 -60 -406 71 -696 337
-745 110 -21 245 21 344 105 47 40 174 210 163 218 -17 15 -200 119 -203 116
-2 -2 -24 -32 -49 -65 -56 -76 -105 -114 -155 -121 -34 -5 -42 -1 -65 26 -29
35 -45 81 -54 156 l-5 50 188 33 c104 18 230 43 279 55 l90 22 -3 120 c-9 350
-97 550 -268 615 -63 23 -166 26 -231 5z m157 -299 c22 -49 40 -153 40 -237
l0 -57 -92 -21 c-159 -36 -158 -36 -158 -15 0 101 60 292 106 341 46 49 80 46
104 -11z"/>
<path d="M15513 21055 c-61 -31 -135 -110 -184 -196 -59 -103 -54 -103 -76 -9
-21 96 -14 91 -152 104 l-69 7 -7 -148 c-12 -239 7 -1029 26 -1047 2 -2 73
-10 158 -18 l153 -14 -8 186 c-11 238 -9 289 22 439 45 220 119 413 161 419
31 5 59 -39 74 -115 17 -85 17 -500 1 -687 -7 -71 -10 -131 -7 -134 5 -6 306
-35 310 -30 13 13 29 334 30 573 0 249 -3 301 -19 370 -48 207 -145 308 -305
322 -47 4 -65 0 -108 -22z"/>
<path d="M16220 20430 c0 -512 3 -652 13 -655 6 -2 76 -10 155 -18 l142 -13 0
652 0 653 -42 5 c-63 8 -235 26 -253 26 -13 0 -15 -72 -15 -650z"/>
<path d="M20603 21055 c-65 -33 -131 -105 -192 -209 l-45 -79 -21 84 c-24 95
-16 90 -154 103 l-69 7 -7 -158 c-12 -246 7 -1019 26 -1037 2 -2 73 -10 157
-18 l152 -14 -1 71 c0 38 -4 129 -8 200 -14 231 44 527 140 716 44 89 85 76
117 -38 14 -48 17 -104 16 -328 0 -148 -6 -324 -13 -389 -6 -65 -9 -121 -7
-124 6 -6 307 -35 311 -30 10 11 27 285 32 518 4 224 2 293 -11 372 -39 238
-142 360 -315 375 -47 4 -65 0 -108 -22z"/>
<path d="M16450 18470 c-79 -17 -206 -87 -269 -148 -139 -137 -200 -342 -157
-535 42 -188 152 -317 441 -517 112 -77 195 -158 226 -218 31 -63 33 -158 3
-198 -30 -41 -65 -64 -113 -75 -121 -27 -246 74 -348 281 -26 52 -48 96 -49
98 -5 8 -254 -124 -254 -136 0 -7 20 -52 44 -100 120 -236 265 -388 424 -441
77 -26 223 -29 303 -5 318 94 479 443 338 733 -53 107 -168 208 -399 351 -113
70 -191 147 -226 224 -93 206 56 443 225 357 80 -41 113 -137 91 -273 -24
-155 -39 -134 145 -194 88 -28 163 -49 167 -47 4 2 20 41 34 86 24 70 28 99
28 202 0 106 -3 127 -26 186 -67 169 -185 289 -343 349 -68 25 -210 35 -285
20z"/>
<path d="M12159 18440 c-85 -10 -257 -45 -334 -68 l-60 -18 1 -45 c0 -24 7
-204 14 -400 13 -360 6 -777 -21 -1202 -5 -88 -7 -162 -5 -165 13 -12 435 -43
511 -37 98 8 237 52 330 104 249 141 367 341 326 553 -26 131 -104 230 -235
299 l-66 35 76 49 c98 64 164 137 211 232 37 75 38 80 38 188 0 105 -2 113
-34 180 -93 189 -325 308 -595 304 -50 -1 -121 -5 -157 -9z m301 -346 c83 -37
120 -86 120 -159 0 -62 -33 -119 -106 -184 -59 -52 -212 -128 -275 -137 l-46
-6 -7 242 c-4 133 -5 244 -3 246 2 3 33 11 68 19 90 20 173 14 249 -21z m-196
-789 c148 -31 271 -114 294 -198 38 -136 -141 -277 -349 -277 -71 0 -69 -4
-69 160 0 81 3 188 6 238 8 106 2 102 118 77z"/>
<path d="M17386 18298 c-9 -43 -26 -271 -21 -276 9 -10 288 -43 295 -35 11 12
32 285 23 293 -4 4 -64 13 -133 19 -69 7 -133 15 -142 17 -12 4 -19 -2 -22
-18z"/>
<path d="M19060 18153 c-1 -107 -18 -504 -22 -508 -2 -2 -46 -11 -98 -20 -52
-9 -96 -18 -98 -20 -2 -2 1 -29 7 -59 6 -31 16 -80 21 -109 l10 -52 75 3 75 4
0 -431 0 -431 28 -1 c15 0 83 -6 152 -13 69 -7 128 -11 133 -9 4 2 7 199 7
436 0 238 3 442 6 455 6 21 11 22 105 22 l99 0 0 130 0 129 -96 3 -97 3 2 105
c1 58 6 172 11 255 5 82 8 150 7 151 -2 2 -305 34 -319 34 -5 0 -8 -35 -8 -77z"/>
<path d="M9807 17673 c-3 -131 -11 -278 -17 -326 -7 -49 -10 -90 -8 -93 4 -3
445 -46 573 -56 l40 -3 12 55 c53 231 53 523 1 593 -11 13 -57 20 -253 37
-132 11 -263 23 -291 26 l-51 6 -6 -239z"/>
<path d="M21765 17841 c-66 -17 -145 -78 -207 -160 l-26 -34 -44 36 c-85 70
-213 90 -301 48 -42 -20 -127 -101 -173 -166 l-22 -30 -7 40 c-3 22 -14 81
-23 130 l-17 90 -108 8 c-60 5 -111 7 -113 4 -3 -3 -10 -119 -15 -258 -9 -241
1 -756 20 -954 l6 -70 105 -11 c58 -7 129 -14 159 -16 l54 -5 -7 76 c-3 42 -9
164 -13 271 -5 181 -4 201 16 274 43 156 128 333 172 356 76 41 97 -103 79
-554 -9 -226 -9 -310 -1 -315 17 -11 294 -32 302 -24 4 5 12 154 18 333 11
356 21 419 82 550 61 131 111 145 149 40 29 -82 23 -425 -16 -814 -8 -82 -12
-151 -10 -154 9 -8 300 -32 307 -24 9 9 35 281 50 507 31 487 -34 721 -223
805 -52 23 -147 33 -193 21z"/>
<path d="M13690 17525 c0 -293 -2 -325 -21 -394 -26 -94 -86 -225 -124 -269
-23 -28 -33 -33 -64 -30 -30 2 -39 9 -54 38 -17 32 -18 55 -13 260 3 124 12
297 21 385 8 88 16 174 18 190 l2 30 -110 12 c-60 6 -131 12 -156 12 l-47 1
-6 -52 c-36 -299 -56 -774 -37 -883 14 -81 61 -174 105 -212 88 -75 230 -100
314 -55 62 32 103 67 152 129 24 29 46 53 50 53 5 0 13 -39 19 -87 19 -139 14
-129 73 -136 29 -4 89 -9 133 -13 l80 -6 -7 113 c-4 63 -9 360 -10 660 l-2
547 -60 6 c-34 3 -105 9 -158 13 l-98 6 0 -318z"/>
<path d="M17370 17186 l0 -654 133 -12 c72 -7 141 -13 152 -14 20 -1 20 6 23
652 1 358 -1 652 -5 652 -5 0 -71 7 -148 15 -77 8 -143 15 -147 15 -5 0 -8
-294 -8 -654z"/>
<path d="M20003 17826 c-191 -62 -320 -270 -368 -591 -43 -290 11 -527 150
-653 80 -73 144 -95 266 -90 83 3 104 8 160 36 35 17 85 50 111 72 43 37 167
205 157 214 -2 2 -49 29 -103 61 l-100 58 -15 -22 c-88 -123 -129 -160 -190
-168 -33 -5 -41 -1 -64 26 -29 35 -45 81 -54 156 l-5 50 188 33 c104 18 230
43 279 55 l90 22 -3 110 c-10 347 -91 546 -250 618 -59 26 -188 33 -249 13z
m134 -264 c30 -19 63 -165 63 -281 l0 -49 -92 -21 c-167 -38 -158 -38 -158 -5
0 55 38 211 64 267 38 78 85 113 123 89z"/>
<path d="M14582 17816 c-131 -60 -286 -313 -347 -569 -95 -392 -8 -670 223
-718 135 -28 246 34 343 191 17 28 33 49 35 47 9 -8 -18 -267 -36 -348 -21
-97 -68 -199 -102 -223 -30 -22 -91 -20 -136 3 -45 23 -116 97 -139 146 -9 19
-19 35 -23 35 -22 0 -216 -91 -218 -103 -5 -24 98 -168 173 -242 179 -176 401
-200 537 -58 162 168 237 526 238 1128 0 202 10 400 25 516 l6 46 -93 13 c-80
11 -98 17 -133 46 -70 57 -168 97 -249 101 -48 2 -81 -1 -104 -11z m242 -314
l28 -27 -5 -125 c-6 -136 -32 -245 -87 -366 -35 -77 -112 -189 -141 -204 -136
-73 -131 384 7 668 24 49 46 80 67 92 28 17 33 18 66 4 20 -8 49 -27 65 -42z"/>
<path d="M18305 17817 c-125 -32 -240 -128 -301 -252 -31 -63 -38 -89 -42
-154 -10 -172 65 -301 234 -401 91 -53 133 -89 154 -131 27 -52 25 -75 -9
-110 -69 -68 -199 -12 -277 119 -10 18 -21 31 -25 30 -14 -6 -139 -154 -139
-165 0 -20 78 -111 133 -154 28 -23 81 -56 117 -73 61 -29 71 -31 185 -31 110
0 124 2 175 27 69 34 134 97 168 163 33 65 42 182 18 250 -31 93 -122 184
-268 268 -105 61 -147 121 -148 209 0 59 12 92 46 123 32 30 84 33 107 8 24
-28 39 -100 35 -177 l-3 -71 118 -10 c65 -6 121 -7 124 -2 14 23 22 143 13
210 -19 150 -81 252 -183 301 -64 31 -162 41 -232 23z"/>
<path d="M21027 15179 c-24 -407 -31 -698 -31 -1256 -1 -347 1 -634 4 -637 3
-2 55 -10 115 -15 61 -6 130 -14 155 -17 l45 -5 0 668 c1 593 8 894 31 1254
l7 96 -74 6 c-41 4 -113 9 -160 13 l-86 7 -6 -114z"/>
<path d="M10125 15223 c-52 -6 -178 -35 -241 -54 l-62 -19 -6 -128 c-9 -198
-20 -1652 -12 -1714 l7 -54 147 -13 c81 -7 163 -15 182 -18 l35 -5 -3 315 -4
314 93 32 c318 111 538 300 621 534 30 82 32 271 4 362 -31 103 -85 194 -161
270 -133 133 -266 186 -459 184 -61 -1 -124 -4 -141 -6z m253 -332 c107 -55
174 -205 156 -348 -16 -134 -131 -277 -277 -348 -41 -19 -77 -35 -81 -35 -8 0
-8 159 1 483 7 292 -4 263 106 266 40 1 70 -5 95 -18z"/>
<path d="M18885 15206 c-121 -40 -248 -142 -331 -268 -161 -242 -234 -619
-193 -996 42 -391 213 -649 475 -716 352 -91 667 234 761 784 22 127 21 407
-1 553 -51 328 -192 542 -414 628 -71 28 -235 36 -297 15z m181 -322 c122 -58
186 -264 186 -599 0 -334 -70 -596 -188 -704 -130 -120 -269 -8 -325 262 -25
123 -34 343 -20 487 40 398 186 630 347 554z"/>
<path d="M13640 14935 c-7 -80 -10 -149 -6 -152 7 -7 288 -45 293 -39 6 5 31
291 27 295 -4 4 -259 40 -290 41 -7 0 -16 -52 -24 -145z"/>
<path d="M17169 15064 c0 -11 -6 -79 -12 -151 l-12 -133 30 -5 c62 -10 269
-35 271 -32 2 1 9 69 16 150 16 172 32 150 -127 167 -55 6 -115 14 -132 17
-27 4 -33 2 -34 -13z"/>
<path d="M21661 14934 c-7 -80 -10 -149 -6 -152 7 -7 287 -43 293 -37 7 7 32
288 27 294 -5 4 -256 39 -291 41 -6 0 -15 -57 -23 -146z"/>
<path d="M12956 14973 c-2 -10 -7 -121 -11 -248 -3 -126 -8 -251 -11 -276 l-5
-46 -96 -16 c-52 -9 -97 -18 -99 -20 -4 -3 33 -218 38 -222 2 -2 34 1 72 6 38
5 72 7 74 4 2 -2 3 -197 3 -432 l-2 -429 138 -12 c76 -7 148 -12 161 -12 l22
0 0 403 c0 221 3 426 6 455 l7 52 98 0 99 0 0 130 0 130 -95 0 -95 0 0 93 c0
50 5 166 10 256 6 90 9 166 7 168 -3 2 -289 33 -314 33 -1 0 -4 -8 -7 -17z"/>
<path d="M14377 14983 c-3 -5 -8 -116 -11 -248 -4 -132 -9 -261 -12 -286 l-5
-46 -96 -16 c-52 -9 -97 -18 -100 -21 -3 -2 0 -30 6 -60 6 -31 16 -80 21 -109
l11 -53 71 8 c40 4 74 6 76 4 2 -2 3 -197 2 -433 l-1 -429 138 -12 c76 -7 148
-12 161 -12 l22 0 0 409 c0 224 3 429 6 455 l7 46 98 0 99 0 0 130 0 130 -95
0 -95 0 0 103 c0 56 5 171 10 256 5 85 8 156 6 158 -2 2 -290 33 -313 33 -1 0
-4 -3 -6 -7z"/>
<path d="M7860 14458 c0 -116 -5 -263 -11 -325 -7 -62 -10 -116 -7 -119 6 -5
601 -63 607 -58 9 8 40 190 51 294 8 83 8 141 0 208 -9 79 -30 162 -42 162 -2
0 -136 11 -298 25 -162 14 -296 25 -297 25 -2 0 -3 -95 -3 -212z"/>
<path d="M11455 14584 c-16 -8 -41 -25 -54 -37 -31 -30 -105 -133 -127 -179
-10 -21 -21 -38 -25 -38 -5 0 -17 28 -27 63 l-20 62 -98 12 c-55 6 -100 10
-101 9 -1 -1 5 -46 12 -101 25 -176 38 -515 32 -817 l-6 -287 32 -5 c67 -10
280 -26 285 -21 3 3 6 182 8 399 2 335 5 403 19 452 22 77 46 123 83 157 27
26 35 29 84 24 29 -2 62 -7 73 -11 18 -6 23 3 54 116 l33 123 -40 36 c-64 56
-156 75 -217 43z"/>
<path d="M13632 13948 l3 -653 115 -12 c63 -6 132 -12 153 -12 l37 -1 0 650
c0 358 -3 650 -7 650 -5 0 -69 7 -143 15 -74 8 -141 15 -148 15 -10 0 -12
-134 -10 -652z"/>
<path d="M15577 14549 c-4 -30 -7 -178 -7 -329 l0 -275 -38 -112 c-40 -116
-94 -218 -125 -235 -29 -15 -69 -5 -91 25 -16 22 -21 46 -24 120 -5 106 12
404 33 611 8 76 14 140 13 142 -7 6 -304 31 -310 25 -11 -10 -38 -324 -50
-583 -13 -277 -5 -374 36 -462 52 -113 150 -176 276 -176 65 0 82 4 126 30 56
32 100 71 155 140 l36 44 18 -116 17 -116 129 -12 c71 -8 131 -11 133 -9 2 2
0 72 -5 154 -4 83 -8 378 -8 656 l-1 506 -62 6 c-35 4 -104 9 -154 13 l-91 7
-6 -54z"/>
<path d="M17152 13948 l3 -653 115 -12 c63 -6 132 -12 153 -12 l37 -1 0 650
c0 358 -3 650 -7 650 -5 0 -71 7 -148 15 -77 8 -143 15 -148 15 -4 0 -6 -294
-5 -652z"/>
<path d="M20317 14586 c-61 -23 -123 -82 -187 -178 -33 -51 -60 -95 -60 -100
0 -4 -4 -8 -10 -8 -5 0 -17 36 -26 79 l-17 80 -51 6 c-28 3 -73 7 -101 8 l-50
2 -8 -125 c-14 -211 6 -1048 25 -1065 7 -7 304 -31 309 -26 3 3 3 58 -2 121
-12 183 -10 340 6 436 32 185 113 431 155 469 46 42 81 -14 101 -161 13 -97 7
-493 -10 -664 -6 -52 -9 -96 -7 -97 3 -4 309 -33 312 -30 14 14 28 297 28 562
1 346 -4 394 -59 512 -64 140 -227 224 -348 179z"/>
<path d="M21652 13948 l3 -653 115 -12 c63 -6 132 -12 153 -12 l37 -1 0 650
c0 358 -3 650 -7 650 -5 0 -69 7 -143 15 -74 8 -141 15 -148 15 -10 0 -12
-134 -10 -652z"/>
<path d="M22757 14586 c-77 -28 -152 -107 -225 -233 -20 -34 -37 -61 -39 -60
-1 2 -11 39 -21 82 -20 90 -16 87 -143 99 l-77 7 -7 -128 c-8 -133 2 -835 13
-983 l7 -85 105 -11 c58 -7 129 -14 158 -16 l54 -5 -9 176 c-4 97 -7 208 -6
247 4 142 78 437 141 564 46 91 87 77 119 -40 14 -54 17 -107 17 -305 0 -132
-6 -305 -13 -383 -7 -79 -10 -146 -8 -148 4 -5 309 -35 313 -31 12 12 29 369
28 597 0 261 -2 292 -22 364 -41 148 -96 228 -188 271 -68 32 -145 41 -197 21z"/>
<path d="M23699 14581 c-115 -37 -201 -121 -270 -266 -94 -194 -132 -499 -88
-707 29 -139 121 -270 226 -323 54 -28 66 -30 168 -30 104 0 114 2 176 32 36
18 86 50 111 72 40 36 140 167 154 204 4 10 -23 31 -91 71 -53 31 -100 56
-104 56 -5 0 -20 -18 -34 -39 -65 -98 -140 -156 -195 -149 -45 5 -85 82 -98
188 l-6 45 188 33 c104 18 231 42 283 54 l94 22 -7 136 c-18 344 -105 537
-272 600 -68 25 -159 25 -235 1z m162 -291 c22 -43 39 -143 39 -232 l0 -66
-110 -26 c-149 -35 -142 -37 -134 27 24 198 93 343 161 335 18 -2 32 -14 44
-38z"/>
<path d="M12112 14570 c-91 -30 -193 -132 -250 -250 -82 -169 -119 -354 -109
-555 10 -199 56 -333 144 -422 49 -50 98 -76 180 -97 121 -32 245 -9 337 61
129 98 225 324 244 572 26 332 -68 581 -252 671 -85 42 -202 50 -294 20z m191
-300 c21 -43 29 -79 37 -162 20 -209 -31 -527 -96 -599 -25 -28 -76 -25 -107
7 -49 49 -62 111 -61 294 0 184 24 329 70 430 35 77 51 92 93 88 33 -3 39 -8
64 -58z"/>
<path d="M16505 14584 c-120 -31 -210 -91 -280 -185 -82 -111 -105 -251 -65
-383 34 -109 93 -169 285 -289 56 -36 94 -84 102 -131 5 -30 1 -40 -25 -66
-70 -69 -199 -15 -278 118 -10 18 -21 31 -25 30 -14 -7 -139 -153 -139 -164 0
-21 77 -112 133 -155 28 -23 81 -56 117 -73 61 -29 72 -31 180 -31 104 0 121
3 172 27 127 59 198 160 206 289 9 146 -51 245 -210 348 -145 94 -175 119
-197 165 -53 108 0 243 92 234 51 -5 72 -52 73 -168 l1 -95 117 -9 c64 -5 119
-6 122 -3 14 14 22 148 13 222 -24 194 -136 312 -303 320 -39 2 -80 2 -91 -1z"/>
<path d="M11470 11680 c0 -209 -2 -380 -4 -380 -2 0 -33 11 -70 25 -92 35
-191 43 -240 20 -107 -51 -219 -272 -272 -540 -26 -127 -26 -364 -1 -462 37
-141 114 -227 232 -258 80 -20 148 -19 193 4 46 23 109 90 148 157 l29 49 8
-115 c5 -63 10 -120 12 -126 3 -11 231 -32 239 -23 6 7 26 466 37 854 11 395
9 1128 -3 1140 -6 7 -40 11 -245 30 l-63 6 0 -381z m-21 -619 l31 -22 0 -128
c0 -113 -3 -136 -30 -219 -56 -173 -119 -300 -161 -322 -27 -15 -65 4 -86 42
-15 28 -18 56 -17 178 1 211 48 412 112 475 23 23 33 26 73 23 26 -3 60 -15
78 -27z"/>
<path d="M15967 11929 c-25 -475 -31 -696 -31 -1251 -1 -344 1 -629 4 -632 4
-4 285 -36 314 -36 1 0 1 298 1 662 1 587 8 876 31 1254 l7 101 -74 6 c-41 4
-113 9 -160 13 l-86 7 -6 -124z"/>
<path d="M20710 12018 c-86 -140 -317 -626 -477 -1003 -92 -216 -463 -1134
-463 -1145 0 -4 59 -12 131 -19 110 -11 133 -11 140 1 5 7 110 267 235 578
234 582 340 830 462 1080 64 131 171 324 214 390 l17 25 -119 63 -120 63 -20
-33z"/>
<path d="M23097 11974 c-22 -270 -32 -652 -32 -1251 0 -369 3 -674 6 -677 3
-4 75 -13 160 -21 85 -8 154 -15 154 -15 0 0 0 316 0 703 0 627 11 1058 31
1258 l6 56 -89 7 c-48 4 -120 9 -159 13 l-71 6 -6 -79z"/>
<path d="M22160 11989 c-66 -13 -198 -80 -253 -129 -61 -54 -116 -136 -152
-225 -37 -91 -46 -246 -21 -343 45 -177 176 -328 432 -497 217 -143 303 -287
242 -405 -33 -64 -76 -90 -151 -90 -139 0 -236 101 -363 378 -2 3 -254 -115
-261 -122 -7 -6 86 -185 132 -256 88 -136 187 -230 301 -281 127 -58 305 -51
442 18 248 125 358 433 242 680 -47 102 -137 187 -335 318 -183 121 -262 194
-297 271 -73 167 15 374 159 374 58 0 112 -37 141 -94 21 -41 25 -64 24 -130
-1 -45 -8 -108 -16 -141 -8 -33 -13 -61 -12 -63 11 -11 332 -110 337 -104 17
17 52 143 62 224 9 73 8 99 -6 165 -25 118 -77 213 -161 297 -137 138 -303
191 -486 155z"/>
<path d="M13880 11980 c-221 -39 -410 -239 -510 -538 -92 -277 -106 -661 -34
-942 62 -238 205 -427 374 -491 193 -73 366 -38 519 106 234 221 356 623 322
1064 -28 362 -132 593 -323 721 -96 64 -245 98 -348 80z m155 -355 c105 -79
156 -267 156 -575 1 -339 -68 -600 -187 -709 -55 -52 -98 -60 -158 -32 -79 39
-134 136 -169 299 -28 131 -30 458 -4 602 21 114 67 255 104 317 30 52 85 110
117 124 36 15 103 4 141 -26z"/>
<path d="M9120 11933 c1 -21 7 -137 15 -258 8 -121 18 -411 22 -645 5 -379 4
-434 -11 -510 -22 -106 -59 -177 -104 -198 -31 -15 -36 -15 -70 3 -24 13 -45
37 -62 70 -22 44 -25 63 -27 170 l-2 120 -153 16 c-84 9 -156 13 -160 10 -15
-13 -27 -172 -18 -248 29 -260 193 -441 429 -475 200 -29 354 64 456 276 100
206 112 322 96 927 -9 389 -26 738 -34 745 -1 1 -65 7 -142 13 -77 6 -161 14
-187 17 l-48 6 0 -39z"/>
<path d="M12110 11829 c-1 -8 -7 -76 -13 -152 -13 -136 -13 -138 7 -142 30 -6
280 -35 282 -32 4 4 24 229 24 268 l0 36 -117 12 c-65 7 -133 15 -150 18 -24
4 -33 1 -33 -8z"/>
<path d="M16616 11829 c-8 -26 -27 -281 -21 -287 11 -12 289 -42 295 -32 10
16 30 284 22 291 -4 3 -56 12 -117 18 -60 7 -125 15 -142 18 -23 3 -34 1 -37
-8z"/>
<path d="M24796 11558 c-3 -106 -9 -239 -13 -294 l-6 -101 -94 -16 c-53 -9
-97 -18 -100 -20 -2 -3 4 -51 15 -108 l18 -104 77 1 77 1 0 -432 0 -432 133
-11 c72 -7 144 -12 160 -12 l27 0 0 455 0 454 103 3 102 3 3 128 3 127 -100 0
-100 0 5 113 c3 61 9 177 14 257 4 80 7 146 6 147 -1 2 -301 33 -317 33 -3 0
-9 -87 -13 -192z"/>
<path d="M6780 11218 c0 -116 -5 -263 -11 -325 -7 -62 -10 -116 -7 -118 3 -3
140 -18 304 -34 209 -20 301 -25 306 -18 11 18 37 173 48 295 8 82 8 137 0
203 -10 82 -31 159 -44 159 -3 0 -129 11 -282 25 -152 14 -286 25 -296 25 -17
0 -18 -13 -18 -212z"/>
<path d="M10366 11362 c-3 -5 -7 -157 -10 -338 -5 -365 -8 -386 -82 -540 -46
-97 -83 -136 -126 -132 -26 2 -37 10 -51 38 -17 32 -18 57 -14 265 3 127 13
312 22 413 10 100 16 184 14 186 -4 5 -303 35 -306 32 -2 -2 -9 -65 -17 -142
-26 -242 -38 -495 -34 -665 5 -201 22 -254 102 -335 84 -83 217 -111 317 -67
52 24 134 95 174 153 36 51 40 45 57 -86 l14 -99 46 -6 c25 -4 85 -10 133 -14
l86 -7 -8 168 c-4 93 -8 390 -8 661 l0 491 -50 6 c-27 3 -86 8 -130 11 -44 3
-90 8 -102 11 -12 2 -24 0 -27 -4z"/>
<path d="M12090 10707 l0 -654 133 -11 c72 -7 142 -12 155 -12 l22 0 0 650 c0
358 -3 650 -7 650 -5 0 -71 7 -148 15 -77 8 -143 15 -147 15 -5 0 -8 -294 -8
-653z"/>
<path d="M15259 11347 c-75 -28 -157 -115 -226 -238 -16 -27 -31 -49 -34 -49
-3 0 -14 36 -24 79 l-18 80 -51 6 c-28 4 -73 7 -101 8 l-50 2 -6 -105 c-15
-245 -5 -828 17 -1031 l6 -57 131 -12 c73 -6 143 -12 157 -13 l25 -2 -5 105
c-11 238 -5 430 19 530 34 146 69 258 107 338 30 61 39 72 60 72 34 0 60 -61
76 -172 12 -90 5 -512 -12 -673 -5 -49 -7 -91 -6 -92 4 -4 309 -33 312 -30 8
8 26 252 33 442 14 431 -17 608 -130 730 -68 74 -199 112 -280 82z"/>
<path d="M16592 10708 l3 -653 115 -12 c63 -6 132 -12 153 -12 l37 -1 0 650
c0 358 -3 650 -7 650 -5 0 -71 7 -148 15 -77 8 -143 15 -148 15 -4 0 -6 -294
-5 -652z"/>
<path d="M17697 11346 c-78 -29 -153 -108 -224 -234 -41 -74 -42 -73 -63 40
l-13 66 -41 6 c-23 3 -68 8 -102 12 l-61 6 -6 -98 c-15 -222 -2 -984 18 -1080
4 -20 15 -22 137 -33 73 -7 144 -14 157 -17 l23 -5 -8 183 c-5 101 -8 215 -6
253 6 149 89 473 148 572 45 77 88 51 115 -72 18 -76 18 -493 0 -684 -6 -73
-10 -135 -8 -137 5 -5 309 -36 312 -32 13 14 29 348 29 588 0 273 -1 301 -22
374 -26 95 -55 154 -99 206 -64 74 -204 117 -286 86z"/>
<path d="M18637 11341 c-72 -24 -153 -84 -201 -150 -112 -152 -188 -457 -172
-686 17 -229 101 -387 243 -457 64 -31 74 -33 173 -33 99 0 110 2 170 32 36
18 88 52 116 77 44 39 134 158 149 199 4 10 -22 30 -91 71 -53 31 -100 56
-104 56 -4 0 -19 -18 -33 -39 -83 -125 -184 -184 -230 -133 -27 30 -56 105
-63 163 l-6 55 185 32 c101 18 227 43 278 55 l94 22 3 40 c2 22 -1 96 -7 165
-33 367 -147 537 -370 547 -55 2 -92 -2 -134 -16z m165 -291 c21 -44 38 -145
38 -232 l0 -66 -87 -21 c-49 -11 -105 -23 -126 -27 l-37 -6 6 58 c16 139 69
285 116 319 36 25 70 15 90 -25z"/>
<path d="M23962 11329 c-78 -25 -175 -112 -232 -208 -142 -241 -173 -664 -66
-897 64 -136 163 -206 322 -226 77 -9 98 -8 149 6 161 46 275 194 342 441 24
91 27 117 27 285 1 202 -13 278 -70 393 -93 185 -280 267 -472 206z m142 -239
c56 -21 86 -134 86 -329 0 -196 -37 -393 -90 -478 -40 -66 -127 -32 -159 63
-19 57 -25 278 -11 391 22 179 64 301 116 342 31 25 26 24 58 11z"/>
<path d="M11176 8778 c-18 -114 -31 -622 -31 -1255 0 -391 2 -714 5 -716 4 -5
196 -25 283 -30 l28 -2 0 260 0 260 75 -80 c115 -123 238 -271 305 -368 l61
-88 101 98 c56 54 100 103 99 108 -12 37 -163 251 -258 366 l-73 88 73 108
c83 122 168 271 219 383 l34 75 -76 66 c-42 37 -90 78 -108 93 l-31 26 -66
-125 c-102 -197 -345 -552 -360 -527 -7 11 11 761 24 977 5 94 10 197 10 231
l0 61 -138 11 c-183 16 -170 17 -176 -20z"/>
<path d="M16482 8718 c-144 -269 -293 -586 -457 -973 -158 -374 -454 -1114
-447 -1119 18 -10 255 -27 263 -19 5 5 107 254 228 553 237 593 299 739 416
990 77 167 190 380 253 478 18 30 32 55 30 57 -4 4 -231 125 -234 125 -1 0
-25 -42 -52 -92z"/>
<path d="M8487 8568 c-4 -128 -7 -330 -7 -449 l0 -217 -32 -5 c-18 -4 -111 -9
-207 -13 l-174 -7 4 399 4 399 -170 16 c-93 9 -173 13 -177 10 -14 -12 -30
-729 -24 -1041 7 -338 26 -833 32 -839 5 -5 268 -30 323 -31 l44 0 -6 168 c-4
92 -10 267 -13 388 l-7 221 44 6 c24 4 115 9 202 13 l157 7 0 -139 c0 -153 16
-518 26 -575 l5 -36 170 -13 c93 -7 171 -11 172 -9 2 2 -1 69 -6 149 -11 182
-15 1385 -4 1621 l7 176 -137 12 c-76 6 -156 14 -179 17 l-41 6 -6 -234z"/>
<path d="M17910 8744 c-89 -14 -155 -28 -226 -50 l-82 -24 -6 -62 c-27 -284
-33 -1812 -7 -1827 6 -4 80 -13 164 -20 83 -7 163 -15 176 -18 l24 -6 -8 314
-7 314 119 43 c271 97 475 258 566 446 46 93 61 162 59 266 -4 298 -195 543
-477 615 -54 14 -226 19 -295 9z m261 -342 c58 -38 73 -56 105 -127 36 -79 44
-192 19 -274 -40 -134 -182 -268 -333 -315 l-23 -8 6 219 c12 463 16 522 34
526 9 3 45 5 82 6 56 1 71 -3 110 -27z"/>
<path d="M12296 8589 c-8 -26 -27 -281 -21 -287 11 -12 289 -42 295 -32 10 16
30 284 22 291 -4 3 -56 12 -117 18 -60 7 -125 14 -142 17 -23 4 -34 2 -37 -7z"/>
<path d="M21656 8483 c-3 -15 -8 -134 -11 -263 -8 -328 5 -294 -115 -315 -55
-9 -100 -18 -100 -19 0 0 9 -48 20 -106 11 -58 20 -107 20 -109 0 -1 34 -1 76
0 l77 4 -2 -431 -2 -430 133 -12 c73 -7 145 -12 161 -12 l27 0 0 388 c0 213 3
417 7 455 l6 67 98 0 99 0 0 130 0 130 -95 0 -95 0 0 88 c0 48 5 163 10 256 6
93 9 170 8 172 -2 1 -53 8 -113 13 -61 6 -131 14 -157 17 -44 5 -46 5 -52 -23z"/>
<path d="M5764 7977 c0 -116 -6 -263 -13 -325 -7 -63 -11 -116 -8 -119 8 -7
605 -58 611 -52 3 3 15 59 27 125 29 159 32 384 6 466 -9 31 -21 60 -26 63 -8
4 -536 55 -581 55 -13 0 -15 -31 -16 -213z"/>
<path d="M9429 8117 c-87 -33 -179 -118 -238 -220 -32 -56 -91 -221 -91 -255
0 -18 9 -21 108 -28 59 -5 113 -9 121 -9 8 0 21 22 31 51 48 140 103 196 170
173 47 -17 63 -58 68 -176 4 -100 4 -103 -17 -103 -56 0 -184 -35 -259 -70
-105 -50 -181 -120 -225 -209 -29 -60 -32 -74 -32 -156 1 -113 26 -176 96
-239 99 -89 276 -104 412 -34 48 24 63 19 71 -25 l7 -35 87 -7 c48 -3 99 -8
113 -11 26 -5 26 -4 32 73 17 212 29 578 24 743 -4 148 -9 200 -26 259 -39
135 -90 205 -183 256 -45 25 -66 30 -143 32 -58 2 -103 -2 -126 -10z m163
-942 l-7 -110 -40 -14 c-22 -7 -67 -13 -100 -13 -52 0 -62 3 -82 27 -50 57
-16 140 77 188 55 28 139 49 152 38 4 -3 4 -55 0 -116z"/>
<path d="M22598 8115 c-89 -33 -173 -112 -233 -220 -36 -65 -78 -178 -89 -236
l-6 -36 102 -7 c57 -4 112 -10 123 -12 17 -4 24 5 44 66 43 127 107 187 168
158 43 -20 64 -74 70 -181 l6 -94 -63 -7 c-252 -29 -449 -181 -480 -372 -18
-111 25 -244 100 -305 88 -73 235 -90 365 -43 39 13 77 27 86 30 13 4 18 -3
23 -31 4 -20 12 -38 19 -40 20 -7 212 -23 216 -19 17 16 42 767 31 908 -20
245 -108 397 -256 442 -59 18 -177 17 -226 -1z m170 -941 l-3 -109 -65 -17
c-103 -28 -174 -7 -185 56 -13 66 56 144 148 170 73 21 91 23 100 16 4 -4 6
-56 5 -116z"/>
<path d="M24620 8121 c-86 -28 -182 -112 -240 -211 -39 -65 -100 -230 -100
-268 0 -18 9 -21 108 -28 59 -5 113 -9 121 -9 8 0 21 22 31 51 48 140 103 196
170 173 47 -17 63 -58 68 -176 4 -100 4 -103 -17 -103 -56 0 -184 -35 -259
-70 -105 -50 -181 -120 -225 -209 -29 -60 -32 -74 -32 -156 1 -113 26 -176 96
-239 102 -92 275 -104 420 -30 l47 23 11 -43 11 -44 87 -7 c49 -3 100 -8 114
-11 26 -5 26 -5 32 78 18 225 29 582 24 743 -4 142 -10 195 -26 254 -39 135
-90 205 -183 256 -46 25 -65 30 -143 32 -49 1 -101 -1 -115 -6z m151 -946 l-6
-110 -40 -14 c-22 -7 -66 -13 -98 -13 -74 0 -107 26 -107 82 0 53 36 100 100
133 55 27 139 49 151 38 4 -3 4 -55 0 -116z"/>
<path d="M10480 8111 c-96 -31 -187 -117 -243 -227 -91 -180 -141 -450 -126
-679 13 -214 114 -363 283 -419 58 -20 171 -22 223 -6 124 41 251 185 322 366
l20 51 -101 72 c-55 40 -101 71 -102 69 -2 -2 -18 -30 -36 -63 -127 -229 -233
-278 -280 -130 -28 85 -7 402 35 542 57 189 177 126 178 -93 l0 -72 36 -6 c20
-3 77 -8 127 -12 72 -5 93 -4 100 7 4 8 10 53 12 102 10 201 -88 407 -228 478
-49 24 -173 36 -220 20z"/>
<path d="M12272 7468 l3 -653 110 -12 c61 -6 129 -12 153 -12 l42 -1 0 650 0
649 -32 5 c-43 7 -233 26 -258 26 -20 0 -20 -9 -18 -652z"/>
<path d="M13355 8098 c-72 -37 -160 -138 -215 -248 -27 -52 -30 -48 -50 62
l-13 66 -41 6 c-23 3 -68 8 -102 12 l-61 6 -6 -107 c-15 -240 -3 -931 18
-1061 l5 -31 133 -11 c72 -7 143 -12 155 -12 l24 0 -9 178 c-11 230 -7 292 22
437 44 220 120 417 162 423 31 5 59 -38 74 -115 18 -86 18 -504 0 -687 -7 -70
-10 -130 -8 -132 5 -5 308 -36 312 -32 13 12 29 343 30 578 0 242 -3 297 -18
365 -39 166 -108 262 -221 304 -71 26 -139 26 -191 -1z"/>
<path d="M19055 8107 c-117 -39 -207 -125 -274 -261 -100 -202 -139 -543 -85
-740 49 -184 179 -316 329 -335 127 -16 262 30 357 122 74 71 156 196 137 208
-8 5 -54 33 -103 61 l-90 52 -20 -29 c-89 -121 -141 -165 -199 -165 -48 0 -93
77 -103 178 l-6 58 208 37 c115 21 241 46 279 56 l70 17 -3 110 c-10 339 -82
526 -234 609 -45 24 -66 29 -138 32 -52 2 -101 -2 -125 -10z m155 -299 c20
-46 40 -170 40 -247 l0 -48 -121 -27 c-66 -16 -123 -25 -126 -22 -10 10 24
197 47 257 31 79 73 129 111 129 26 0 33 -6 49 -42z"/>
<path d="M20132 8090 c-51 -37 -116 -118 -150 -187 -15 -29 -30 -53 -34 -53
-4 0 -16 28 -26 63 l-18 62 -99 12 c-54 7 -100 12 -101 10 -1 -1 4 -44 11 -95
25 -163 38 -502 33 -814 l-6 -298 32 -5 c63 -10 279 -25 284 -20 3 3 7 183 8
401 l3 395 26 78 c16 49 39 94 62 120 36 42 37 43 92 38 31 -2 65 -7 76 -11
18 -6 23 4 53 111 18 65 32 123 32 129 0 7 -16 24 -35 38 -85 65 -176 75 -243
26z"/>
<path d="M20823 8102 c-112 -40 -190 -117 -258 -257 -110 -225 -143 -559 -75
-777 23 -74 84 -173 133 -214 146 -123 378 -111 533 29 45 41 154 187 154 207
0 8 -186 120 -200 120 -4 0 -22 -23 -40 -50 -60 -94 -154 -156 -205 -136 -33
12 -68 93 -81 187 l-6 44 208 38 c115 21 241 45 279 55 l70 17 3 45 c6 72 -17
293 -38 374 -39 152 -107 254 -205 304 -68 35 -195 41 -272 14z m169 -292 c21
-44 38 -145 38 -231 l0 -66 -121 -27 c-66 -16 -122 -26 -125 -23 -7 7 15 146
32 207 47 161 132 230 176 140z"/>
<path d="M25822 8101 c-60 -29 -140 -115 -194 -211 -25 -45 -48 -78 -51 -73
-3 4 -12 42 -22 84 l-17 77 -41 6 c-23 3 -67 8 -98 12 l-56 6 -6 -39 c-23
-141 -15 -862 11 -1098 l7 -60 110 -12 c61 -6 132 -12 158 -12 l48 -1 -7 88
c-5 48 -8 164 -8 257 0 141 4 188 23 275 30 138 95 335 127 383 47 72 92 31
113 -103 14 -86 13 -466 -2 -652 -7 -82 -12 -148 -12 -148 1 -3 310 -28 313
-25 8 8 21 170 33 410 21 432 -17 651 -130 764 -79 79 -214 112 -299 72z"/>
<path d="M14341 8094 c-109 -47 -231 -211 -307 -411 -91 -243 -110 -534 -43
-690 62 -146 210 -220 354 -178 70 20 147 89 203 179 33 53 37 57 41 35 1 -13
-2 -78 -8 -145 -20 -209 -66 -355 -127 -403 -73 -57 -201 10 -280 147 -10 17
-21 32 -25 32 -4 0 -54 -20 -111 -44 -71 -31 -103 -50 -102 -61 4 -36 75 -136
159 -221 106 -107 181 -149 294 -163 134 -17 221 25 303 144 128 188 187 497
188 980 1 202 11 446 26 586 l7 67 -92 12 c-83 12 -96 17 -151 57 -107 80
-248 113 -329 77z m182 -275 c12 -6 34 -23 50 -37 26 -25 27 -29 27 -133 0
-183 -73 -404 -178 -536 -50 -63 -75 -73 -107 -43 -116 109 23 760 163 760 13
0 33 -5 45 -11z"/>
<path d="M23677 8100 c-126 -32 -248 -133 -308 -256 -32 -65 -34 -74 -34 -179
0 -98 3 -116 26 -165 37 -78 91 -136 179 -191 131 -84 161 -109 181 -153 25
-54 24 -69 -7 -105 -21 -26 -33 -31 -67 -31 -79 1 -129 36 -224 158 l-18 23
-72 -82 c-82 -95 -82 -86 3 -178 107 -116 225 -172 362 -172 128 0 225 41 301
127 75 85 102 219 66 325 -29 84 -120 176 -254 254 -123 72 -160 125 -161 225
0 89 45 145 112 138 52 -5 73 -52 73 -165 0 -58 4 -94 11 -97 6 -2 61 -7 122
-11 l110 -7 7 46 c13 83 0 236 -24 298 -29 75 -97 149 -162 177 -58 25 -165
35 -222 21z"/>
<path d="M5393 5206 c1 -206 -1 -377 -4 -380 -3 -3 -34 6 -69 20 -65 26 -178
42 -224 30 -159 -40 -333 -516 -311 -851 17 -255 93 -379 256 -421 143 -37
229 -1 317 130 l49 74 7 -52 c3 -28 6 -79 6 -112 0 -37 5 -66 13 -72 6 -5 62
-13 123 -17 l111 -7 6 103 c23 358 31 690 31 1259 l1 645 -130 12 c-71 6 -142
12 -157 12 l-26 1 1 -374z m-36 -617 l43 -21 0 -134 c0 -126 -2 -141 -35 -242
-42 -129 -110 -268 -146 -294 -25 -19 -28 -19 -57 -4 -46 24 -57 69 -56 221 2
193 50 392 111 465 31 37 76 40 140 9z"/>
<path d="M12666 5469 c-23 -371 -30 -671 -31 -1246 0 -358 2 -654 5 -656 3 -3
61 -10 130 -16 69 -7 139 -14 155 -16 l30 -5 0 683 c0 609 9 984 31 1258 l6
76 -68 6 c-38 4 -110 9 -160 13 l-91 6 -7 -103z"/>
<path d="M14616 5549 c-3 -13 -11 -145 -18 -294 -12 -259 -19 -1677 -8 -1688
8 -9 305 -35 311 -28 3 3 2 105 -3 226 -5 121 -7 416 -3 655 5 395 10 545 31
986 l7 141 -64 6 c-35 4 -105 9 -156 13 -91 6 -92 6 -97 -17z"/>
<path d="M18406 5484 c-22 -311 -30 -664 -31 -1251 0 -364 2 -664 5 -666 3 -3
61 -10 130 -16 69 -7 139 -14 155 -16 l30 -5 0 698 c0 623 10 1039 31 1258 l6
61 -68 6 c-38 4 -110 9 -160 13 l-91 6 -7 -88z"/>
<path d="M19706 5539 c-18 -115 -31 -620 -31 -1256 0 -391 2 -714 5 -716 8 -9
305 -35 311 -28 3 3 2 112 -3 241 -5 129 -6 422 -3 650 6 377 10 504 31 971
l7 146 -64 6 c-35 4 -105 9 -156 13 l-92 6 -5 -33z"/>
<path d="M8825 4758 c0 -543 -4 -844 -13 -981 -8 -110 -12 -200 -10 -202 7 -7
303 -33 310 -26 3 3 11 121 17 261 17 381 16 375 56 490 60 169 104 240 151
240 13 0 32 -12 45 -27 l22 -28 -6 -437 c-3 -241 -5 -438 -4 -438 31 -5 303
-27 305 -25 8 8 22 284 28 565 6 257 5 305 -10 370 -45 206 -154 322 -301 324
-73 0 -141 -32 -211 -98 -25 -24 -47 -39 -49 -32 -2 6 -6 178 -9 381 -4 204
-9 382 -12 396 -6 26 -8 26 -132 38 -70 6 -138 11 -152 11 l-25 0 0 -782z"/>
<path d="M12016 5329 c-8 -51 -25 -263 -21 -267 3 -3 277 -42 296 -42 10 0 32
291 23 300 -5 4 -56 13 -114 20 -58 6 -122 14 -142 17 -35 5 -37 4 -42 -28z"/>
<path d="M13957 5308 c-4 -29 -9 -96 -13 -149 l-7 -97 29 -6 c49 -10 267 -36
271 -33 3 4 20 175 25 262 l3 40 -130 17 c-187 24 -171 27 -178 -34z"/>
<path d="M21396 5329 c-9 -59 -26 -262 -22 -267 4 -3 266 -41 292 -42 13 0 39
289 27 300 -4 4 -55 13 -113 19 -58 7 -122 15 -142 18 -35 5 -37 4 -42 -28z"/>
<path d="M24897 4933 c-17 -30 -205 -786 -232 -935 -4 -21 -10 -38 -14 -38 -4
0 -17 44 -29 98 -41 185 -64 339 -98 674 -7 65 0 61 -134 73 -36 3 -89 8 -119
12 l-54 6 6 -80 c28 -363 142 -812 280 -1102 l40 -85 -33 -125 c-32 -122 -110
-450 -110 -462 0 -6 291 -32 296 -26 2 1 24 101 49 222 114 540 246 1070 366
1464 28 90 49 165 47 166 -7 7 -247 145 -252 145 -2 0 -7 -3 -9 -7z"/>
<path d="M6278 4875 c-131 -48 -237 -182 -300 -378 -24 -77 -28 -101 -18 -107
7 -4 53 -11 104 -14 50 -4 101 -10 113 -13 17 -4 22 1 28 29 21 98 99 208 149
208 62 0 94 -60 103 -194 l6 -93 -63 -7 c-133 -15 -288 -82 -368 -159 -116
-111 -149 -275 -86 -417 51 -113 129 -161 269 -168 78 -4 100 -1 165 22 41 15
82 29 91 32 13 5 18 -3 24 -34 l6 -39 67 -7 c37 -3 88 -6 114 -6 58 0 53 -18
68 285 16 338 15 635 -4 729 -34 170 -125 297 -238 331 -63 18 -180 18 -230 0z
m172 -923 c0 -63 -5 -104 -12 -115 -17 -23 -132 -46 -178 -36 -121 27 -73 180
72 230 29 10 68 18 86 19 l32 0 0 -98z"/>
<path d="M10258 4875 c-131 -48 -237 -182 -300 -378 -24 -77 -28 -101 -18
-107 7 -4 53 -11 104 -14 50 -4 101 -10 113 -13 17 -4 22 1 28 29 21 98 99
208 149 208 62 0 94 -60 103 -194 l6 -93 -63 -7 c-133 -15 -288 -82 -368 -159
-89 -85 -131 -204 -114 -319 17 -115 66 -189 157 -236 40 -20 68 -27 140 -30
78 -4 100 -1 165 22 41 15 82 29 91 32 13 5 18 -3 24 -34 l6 -39 67 -7 c37 -3
88 -6 114 -6 l47 0 5 43 c27 205 35 851 12 971 -33 169 -125 297 -238 331 -63
18 -180 18 -230 0z m170 -930 c-1 -57 -8 -109 -14 -115 -18 -18 -136 -38 -174
-29 -82 19 -93 101 -22 172 42 42 122 76 180 77 l34 0 -4 -105z"/>
<path d="M17610 4879 c-85 -26 -175 -107 -237 -214 -58 -99 -111 -264 -89
-276 6 -4 52 -10 101 -14 50 -3 100 -9 112 -12 18 -4 23 2 37 49 20 69 74 158
107 177 31 17 71 9 98 -20 25 -27 41 -100 41 -188 l0 -68 -80 -12 c-204 -31
-358 -128 -427 -268 -25 -52 -28 -68 -28 -158 0 -89 3 -106 28 -157 52 -106
147 -158 287 -158 61 0 95 6 147 26 107 40 100 40 110 -3 8 -37 10 -38 63 -45
30 -3 82 -6 116 -7 l61 -1 6 113 c31 545 31 781 2 921 -30 144 -106 255 -204
299 -53 24 -194 33 -251 16z m160 -938 l0 -109 -27 -11 c-69 -28 -163 -31
-201 -7 -6 3 -16 22 -22 40 -15 45 5 93 54 132 42 34 117 63 164 64 l32 0 0
-109z"/>
<path d="M20597 4876 c-107 -39 -204 -140 -267 -279 -34 -77 -64 -181 -57
-200 4 -11 35 -17 109 -23 57 -5 109 -9 116 -9 7 0 24 31 37 68 43 123 100
180 161 160 49 -16 68 -64 72 -179 l4 -101 -56 -7 c-207 -26 -375 -127 -450
-271 -28 -55 -31 -68 -31 -155 0 -82 4 -103 26 -150 31 -66 78 -115 139 -144
37 -17 64 -21 155 -21 103 0 114 2 177 32 l66 31 11 -42 11 -43 67 -6 c38 -4
89 -7 114 -7 l46 0 6 88 c17 235 29 603 24 742 -7 179 -23 255 -74 352 -63
121 -159 178 -296 178 -40 -1 -89 -7 -110 -14z m161 -938 l-3 -112 -45 -14
c-25 -7 -69 -13 -98 -14 -42 0 -58 4 -77 22 -45 42 -27 126 36 171 42 30 117
58 157 59 l33 0 -3 -112z"/>
<path d="M25610 4881 c-83 -27 -149 -77 -206 -156 -54 -77 -97 -168 -123 -262
-18 -67 -18 -73 -3 -77 15 -4 187 -21 221 -21 8 0 21 24 31 57 40 130 105 195
169 169 45 -19 64 -70 69 -182 l4 -95 -81 -13 c-203 -31 -359 -129 -428 -269
-55 -111 -41 -269 32 -364 91 -120 312 -144 475 -53 24 13 25 13 35 -28 11
-42 11 -42 65 -49 30 -3 82 -6 116 -7 l61 -1 6 108 c19 310 29 622 23 737 -12
265 -86 426 -225 488 -50 22 -195 33 -241 18z m148 -943 l-3 -112 -45 -14
c-57 -16 -140 -18 -168 -3 -27 14 -41 66 -31 106 17 63 130 133 217 134 l33 1
-3 -112z"/>
<path d="M7489 4856 c-60 -32 -134 -115 -191 -211 l-46 -78 -19 84 c-22 95
-15 90 -151 103 l-69 7 -6 -83 c-17 -215 0 -1087 22 -1110 8 -9 300 -33 307
-25 4 3 1 97 -5 209 -12 225 -5 303 44 497 53 208 110 335 148 329 81 -11 105
-305 66 -796 -6 -73 -9 -135 -6 -138 6 -6 308 -37 312 -32 12 13 30 371 30
593 -1 298 -9 364 -63 480 -57 121 -144 184 -264 191 -53 4 -71 0 -109 -20z"/>
<path d="M12000 4227 l0 -654 128 -12 c70 -6 139 -11 155 -11 l27 0 0 649 0
650 -42 5 c-63 8 -235 26 -253 26 -13 0 -15 -72 -15 -653z"/>
<path d="M13940 4227 l0 -653 128 -12 c70 -7 139 -12 155 -12 l27 0 0 650 0
649 -32 5 c-36 6 -245 26 -265 26 -10 0 -13 -137 -13 -653z"/>
<path d="M15481 4859 c-218 -77 -362 -386 -362 -774 1 -216 49 -355 162 -460
83 -76 146 -98 266 -92 78 3 103 9 157 36 85 42 159 109 218 200 26 40 48 77
48 82 0 9 -182 119 -198 119 -5 0 -12 -6 -15 -12 -2 -7 -25 -41 -51 -75 -47
-62 -108 -103 -155 -103 -47 0 -87 75 -106 196 l-6 42 48 6 c78 11 208 35 367
68 l149 31 -6 146 c-14 326 -92 507 -252 582 -50 24 -72 29 -135 28 -47 0 -95
-8 -129 -20z m169 -281 c21 -35 38 -127 42 -233 l3 -70 -87 -21 c-47 -12 -103
-25 -122 -28 l-36 -7 0 43 c0 49 31 184 54 240 9 21 30 53 47 73 40 45 72 46
99 3z"/>
<path d="M21380 4227 l0 -654 123 -11 c67 -7 137 -12 155 -12 l32 0 0 649 0
650 -42 5 c-63 8 -235 26 -253 26 -13 0 -15 -72 -15 -653z"/>
<path d="M22460 4859 c-58 -26 -145 -119 -195 -208 -22 -39 -43 -71 -47 -71
-4 0 -15 36 -25 79 l-18 80 -65 7 c-36 4 -81 7 -100 8 l-35 1 -6 -95 c-16
-228 -6 -849 16 -1046 l6 -50 127 -12 c172 -16 196 -16 188 3 -3 9 -9 116 -12
238 -6 213 -5 227 20 350 32 156 78 303 118 380 25 45 36 57 55 57 33 0 58
-60 74 -175 13 -99 7 -483 -11 -659 -5 -55 -8 -101 -6 -103 5 -5 308 -35 312
-30 13 13 28 293 28 557 1 270 -2 326 -17 392 -37 157 -110 255 -221 297 -71
26 -128 26 -186 0z"/>
<path d="M23592 4855 c-61 -32 -121 -97 -183 -200 -24 -41 -47 -75 -50 -75 -3
0 -14 36 -24 79 l-18 79 -41 6 c-141 19 -153 19 -160 0 -23 -59 -15 -884 10
-1125 l6 -56 127 -11 c69 -7 141 -12 160 -12 33 0 33 0 28 38 -4 20 -9 120
-13 222 -5 150 -3 203 10 280 35 202 102 417 147 474 44 56 83 18 105 -103 17
-96 17 -426 0 -646 -7 -88 -12 -161 -11 -163 4 -5 308 -33 312 -28 13 13 34
364 35 586 1 211 -2 258 -19 340 -46 213 -148 325 -308 337 -51 4 -68 0 -113
-22z"/>
<path d="M11320 4855 c-121 -34 -231 -129 -292 -253 -31 -63 -33 -72 -33 -177
0 -98 3 -116 26 -166 39 -82 90 -133 215 -215 120 -78 158 -121 158 -182 0
-73 -89 -105 -172 -63 -36 19 -95 76 -137 135 l-20 28 -73 -82 c-85 -96 -86
-88 22 -196 52 -52 92 -81 151 -110 79 -38 82 -39 195 -39 104 0 121 3 172 27
76 35 142 98 175 167 24 49 28 68 28 146 0 78 -4 97 -27 140 -37 72 -114 145
-220 210 -153 94 -178 127 -178 233 0 94 55 156 123 138 44 -11 62 -58 61
-163 0 -59 4 -94 12 -97 6 -2 60 -7 121 -11 l110 -7 7 32 c11 55 6 202 -8 255
-43 161 -143 251 -292 260 -45 3 -88 0 -124 -10z"/>
<path d="M16495 4856 c-120 -56 -265 -277 -330 -501 -44 -152 -58 -257 -52
-390 6 -135 26 -207 78 -280 79 -110 243 -154 359 -95 45 23 128 110 166 175
26 45 29 48 33 25 6 -44 -19 -269 -40 -348 -24 -95 -62 -175 -96 -202 -72 -57
-201 10 -276 143 -11 20 -24 37 -28 37 -4 0 -54 -20 -111 -44 -71 -31 -103
-50 -102 -61 3 -31 70 -129 139 -203 80 -87 166 -146 242 -168 368 -107 562
283 563 1129 1 202 10 424 26 568 l7 67 -91 12 c-82 11 -97 17 -144 53 -84 63
-151 90 -238 94 -50 2 -85 -1 -105 -11z m176 -266 c5 0 27 -16 49 -36 l40 -36
0 -108 c0 -183 -74 -406 -178 -537 -50 -63 -75 -73 -107 -43 -67 63 -55 333
25 570 40 119 109 209 148 195 8 -3 18 -5 23 -5z"/>
<path d="M26350 4043 c2 -62 -13 -382 -19 -423 -5 -30 -4 -57 0 -61 13 -8 347
-32 357 -25 33 20 50 330 24 432 l-13 51 -137 12 c-75 6 -154 14 -174 17 -21
3 -38 2 -38 -3z"/>
<path d="M23860 1289 l0 -130 -32 22 c-33 24 -124 37 -172 25 -131 -33 -189
-289 -98 -436 55 -89 169 -117 261 -65 52 30 51 30 51 5 0 -17 7 -20 40 -20
l40 0 0 365 0 365 -45 0 -45 0 0 -131z m-30 -184 l30 -29 0 -129 c0 -128 0
-129 -28 -157 -48 -48 -122 -52 -175 -10 -76 60 -73 270 5 335 28 24 39 27 85
23 42 -4 60 -11 83 -33z"/>
<path d="M27100 1290 l0 -129 -37 25 c-34 23 -46 25 -109 22 -86 -4 -129 -32
-165 -105 -35 -71 -40 -220 -9 -291 24 -56 84 -118 125 -128 52 -13 132 1 169
30 l36 27 0 -25 c0 -24 4 -26 40 -26 l40 0 0 365 0 365 -45 0 -45 0 0 -130z
m-50 -166 c47 -32 50 -41 50 -179 0 -124 -1 -133 -22 -152 -74 -67 -166 -54
-209 29 -34 64 -33 175 1 243 14 28 36 56 50 62 35 18 101 16 130 -3z"/>
<path d="M28540 1055 l0 -365 40 0 40 0 0 365 0 365 -40 0 -40 0 0 -365z"/>
<path d="M28790 1055 l0 -365 40 0 40 0 0 365 0 365 -40 0 -40 0 0 -365z"/>
<path d="M31330 1290 c0 -71 -2 -130 -5 -130 -2 0 -21 11 -41 25 -29 20 -49
25 -96 25 -65 0 -100 -14 -139 -57 -46 -49 -62 -93 -67 -179 -5 -99 15 -179
60 -229 43 -50 77 -65 146 -65 47 0 67 5 96 25 44 30 46 30 46 5 0 -17 7 -20
40 -20 l40 0 0 365 0 365 -40 0 -40 0 0 -130z m-60 -165 c53 -28 60 -48 60
-181 0 -115 -1 -122 -25 -148 -66 -71 -173 -57 -215 28 -45 94 -18 265 48 301
35 19 96 19 132 0z"/>
<path d="M24902 1378 c-13 -13 -15 -37 -6 -62 7 -19 64 -22 82 -4 7 7 12 21
12 33 0 28 -19 45 -50 45 -14 0 -31 -5 -38 -12z"/>
<path d="M27312 1378 c-7 -7 -12 -21 -12 -33 0 -28 19 -45 50 -45 31 0 50 17
50 45 0 28 -19 45 -50 45 -14 0 -31 -5 -38 -12z"/>
<path d="M30772 1378 c-15 -15 -16 -50 0 -66 7 -7 27 -12 45 -12 27 0 34 5 39
27 4 14 2 33 -3 42 -13 20 -64 26 -81 9z"/>
<path d="M23072 1243 c-28 -76 -87 -231 -131 -345 l-79 -208 47 0 46 0 31 88
31 87 149 0 148 0 32 -85 31 -85 48 -3 c43 -3 47 -1 40 15 -10 26 -235 612
-247 646 -9 24 -15 27 -52 27 l-43 0 -51 -137z m157 -141 c28 -79 49 -147 46
-152 -7 -12 -212 -13 -219 -2 -4 7 20 81 90 270 9 24 20 40 24 35 4 -4 31 -72
59 -151z"/>
<path d="M24060 951 l0 -261 40 0 40 0 0 191 0 191 34 34 c30 30 40 34 86 34
44 0 56 -4 81 -29 l29 -29 0 -196 0 -196 45 0 45 0 0 175 c0 197 8 233 59 259
50 26 108 21 142 -13 l29 -29 0 -196 0 -196 45 0 45 0 0 198 c0 223 -10 264
-72 302 -65 40 -184 24 -246 -33 l-22 -21 -16 22 c-25 36 -68 52 -137 52 -52
0 -71 -5 -101 -25 -45 -30 -44 -30 -48 -2 -2 18 -10 23 -40 25 l-38 3 0 -260z"/>
<path d="M24897 1204 c-4 -4 -7 -121 -7 -261 l0 -253 45 0 45 0 -2 258 -3 257
-35 3 c-20 2 -39 0 -43 -4z"/>
<path d="M25140 951 l0 -261 40 0 40 0 0 184 c0 171 1 185 21 210 42 53 112
71 168 41 16 -8 32 -22 37 -32 4 -10 10 -105 12 -210 l4 -193 39 0 39 0 0 200
c0 217 -5 244 -54 290 -22 20 -40 25 -95 28 -70 4 -113 -9 -140 -42 -19 -23
-29 -20 -33 12 -3 23 -8 27 -40 30 l-38 3 0 -260z"/>
<path d="M26005 1196 c-52 -24 -117 -111 -98 -130 13 -12 83 -6 83 7 0 22 45
58 82 66 82 16 138 -21 138 -94 l0 -43 -92 -4 c-150 -6 -221 -58 -222 -162 -1
-61 18 -95 74 -133 48 -33 140 -32 195 2 49 30 55 30 55 5 0 -17 7 -20 51 -20
38 0 48 3 42 13 -4 6 -10 101 -13 209 -5 215 -8 223 -74 272 -35 27 -174 34
-221 12z m205 -316 c0 -53 -3 -64 -26 -85 -55 -51 -147 -54 -184 -7 -26 32
-25 72 1 106 25 32 65 44 147 45 l62 1 0 -60z"/>
<path d="M26440 951 l0 -261 39 0 40 0 3 190 3 190 27 26 c21 21 39 28 83 32
l56 5 -3 36 c-3 35 -4 36 -50 39 -40 3 -51 -1 -81 -28 l-36 -31 -3 28 c-3 24
-8 28 -40 31 l-38 3 0 -260z"/>
<path d="M27310 950 l0 -260 40 0 40 0 0 260 0 260 -40 0 -40 0 0 -260z"/>
<path d="M27660 1199 c-40 -16 -81 -60 -106 -114 -32 -68 -34 -207 -3 -275 41
-90 102 -130 199 -130 91 0 172 50 199 123 17 43 14 47 -27 47 -34 0 -40 -4
-55 -35 -22 -46 -67 -68 -129 -63 -89 9 -122 62 -122 193 0 99 13 137 60 174
42 33 114 29 158 -9 19 -17 36 -41 38 -53 2 -18 10 -23 46 -25 l44 -3 -7 33
c-11 52 -43 96 -89 123 -35 20 -56 25 -112 24 -38 0 -80 -5 -94 -10z"/>
<path d="M28155 1196 c-16 -8 -44 -28 -61 -45 -53 -52 -68 -95 -72 -201 -3
-89 -2 -99 25 -150 18 -34 45 -66 72 -85 37 -26 53 -30 120 -33 85 -4 122 8
174 56 33 31 33 39 5 62 -22 18 -23 17 -56 -11 -39 -35 -69 -43 -128 -36 -66
7 -111 55 -129 135 l-7 32 178 0 177 0 -5 73 c-7 105 -51 180 -121 206 -39 15
-136 13 -172 -3z m153 -72 c27 -19 49 -59 53 -99 l4 -30 -127 -3 c-124 -3
-128 -2 -128 18 0 31 28 82 58 107 32 28 106 31 140 7z"/>
<path d="M29287 1203 c-4 -3 -7 -120 -7 -260 l0 -253 45 0 45 0 2 202 3 202
34 23 c40 27 98 30 141 8 42 -22 50 -64 50 -262 l0 -173 40 0 40 0 0 170 c0
187 7 221 55 258 32 25 95 29 135 9 40 -20 49 -66 49 -259 l1 -178 40 0 40 0
0 203 c0 227 -6 252 -69 294 -26 18 -48 23 -98 23 -69 0 -93 -8 -136 -48 l-27
-26 -36 35 c-34 33 -37 34 -117 34 -69 0 -87 -4 -114 -22 -39 -29 -43 -29 -43
2 0 22 -4 25 -33 25 -19 0 -37 -3 -40 -7z"/>
<path d="M30060 1198 c0 -8 40 -125 90 -262 l89 -248 -23 -51 c-28 -64 -44
-77 -96 -84 -39 -5 -41 -7 -38 -37 3 -29 6 -31 45 -34 54 -4 96 18 127 66 18
28 236 635 236 657 0 11 -78 4 -88 -7 -5 -7 -33 -89 -62 -183 -28 -93 -55
-174 -60 -178 -4 -5 -36 76 -71 180 l-64 188 -42 3 c-31 2 -43 -1 -43 -10z"/>
<path d="M30777 1203 c-4 -3 -7 -120 -7 -260 l0 -253 40 0 40 0 0 260 0 260
-33 0 c-19 0 -37 -3 -40 -7z"/>
<path d="M29050 770 c-11 -11 -20 -28 -20 -38 0 -24 31 -52 57 -52 23 0 53 30
53 53 0 21 -35 57 -55 57 -8 0 -24 -9 -35 -20z"/>
<path d="M30543 780 c-31 -13 -40 -55 -18 -80 23 -25 57 -26 78 -2 22 25 21
48 -3 72 -22 22 -25 23 -57 10z"/>
</g>
</svg>
